<svg width="18" height="19" viewBox="0 0 18 19" fill="none" xmlns="http://www.w3.org/2000/svg">
<g clip-path="url(#clip0_311_220)">
<path d="M2.53125 9.99072V18.8501H10.125V16.1782C10.125 15.4751 10.1484 14.9829 10.1953 14.7017C10.2891 14.3267 10.4766 13.9517 10.7578 13.5767C10.9922 13.2485 11.5312 12.6157 12.375 11.6782L15.8906 7.74072C15.8906 7.74072 15.4453 7.33057 14.5547 6.51025C13.6641 5.68994 13.1719 5.27979 13.0781 5.27979L13.3594 4.43604C13.5 3.87354 13.5703 3.59229 13.5703 3.59229L10.1953 2.46729L10.125 1.13135H2.53125V9.99072ZM9.28125 7.17822V12.3813H3.375V1.9751H9.28125V7.17822ZM11.3906 3.73291C12.1406 3.96729 12.5156 4.10791 12.5156 4.15479L10.1953 11.8892C10.1484 11.936 10.125 10.5298 10.125 7.67041C10.125 4.81104 10.1484 3.38135 10.1953 3.38135L11.3906 3.73291ZM13.8516 7.0376C14.4141 7.50635 14.6953 7.76416 14.6953 7.81104L12.8672 9.8501C11.6953 11.2095 11.0859 11.8892 11.0391 11.8892L12.7969 6.19385C12.8438 6.14697 12.8906 6.14697 12.9375 6.19385L13.8516 7.0376ZM9.28125 15.6157V18.0063H3.375V13.2251H9.28125V15.6157ZM5.76562 14.4907C5.48438 14.6313 5.28516 14.854 5.16797 15.1587C5.05078 15.4634 5.05078 15.7681 5.16797 16.0728C5.28516 16.3774 5.46094 16.5884 5.69531 16.7056C5.92969 16.8228 6.14062 16.8813 6.32812 16.8813C6.51562 16.8813 6.72656 16.8228 6.96094 16.7056C7.19531 16.5884 7.37109 16.3774 7.48828 16.0728C7.60547 15.7681 7.60547 15.4634 7.48828 15.1587C7.37109 14.854 7.19531 14.6431 6.96094 14.5259C6.72656 14.4087 6.51562 14.3501 6.32812 14.3501C6.14062 14.3501 5.95312 14.397 5.76562 14.4907ZM6.60938 15.3345C6.70312 15.4282 6.75 15.522 6.75 15.6157C6.75 15.7095 6.70312 15.8032 6.60938 15.897C6.51562 15.9907 6.42188 16.0376 6.32812 16.0376C6.23438 16.0376 6.14062 15.9907 6.04688 15.897C5.95312 15.8032 5.90625 15.7095 5.90625 15.6157C5.90625 15.522 5.95312 15.4282 6.04688 15.3345C6.14062 15.2407 6.23438 15.1938 6.32812 15.1938C6.42188 15.1938 6.51562 15.2407 6.60938 15.3345Z" fill="#00A4E4"/>
</g>
<defs>
<clipPath id="clip0_311_220">
<rect width="18" height="18" fill="white" transform="matrix(1 0 0 -1 0 18.8501)"/>
</clipPath>
</defs>
</svg>
