<svg width="14" height="15" viewBox="0 0 14 15" fill="none" xmlns="http://www.w3.org/2000/svg">
<g clip-path="url(#clip0_105_1651)">
<path d="M7.25922 1.11328C7.435 0.957031 7.60101 0.957031 7.75726 1.11328L13.8803 7.26562C14.0561 7.42188 14.0561 7.57812 13.8803 7.73438L7.75726 13.8867C7.60101 14.043 7.435 14.043 7.25922 13.8867L6.67328 13.3008C6.61469 13.2422 6.58539 13.1641 6.58539 13.0664C6.58539 12.9688 6.61469 12.8809 6.67328 12.8027L11.2143 8.26172H1.22406C0.989685 8.26172 0.872498 8.14453 0.872498 7.91016V7.08984C0.872498 6.85547 0.989685 6.73828 1.22406 6.73828H11.2143L6.67328 2.19727C6.51703 2.02148 6.51703 1.85547 6.67328 1.69922L7.25922 1.11328Z" fill="white"/>
</g>
<defs>
<clipPath id="clip0_105_1651">
<rect width="13.13" height="15" fill="white" transform="matrix(1 0 0 -1 0.869995 15)"/>
</clipPath>
</defs>
</svg>
