<svg width="12" height="14" viewBox="0 0 12 14" fill="none" xmlns="http://www.w3.org/2000/svg">
<path d="M7.41406 8.41406C7.41406 8.41406 7.51172 8.31641 7.70703 8.12109C7.90234 7.92578 8 7.55208 8 7C8 6.44792 7.80469 5.97656 7.41406 5.58594C7.02344 5.19531 6.55208 5 6 5C5.44792 5 4.97656 5.19531 4.58594 5.58594C4.19531 5.97656 4 6.44792 4 7C4 7.55208 4.19531 8.02344 4.58594 8.41406C4.97656 8.80469 5.44792 9 6 9C6.55208 9 7.02344 8.80469 7.41406 8.41406ZM8.17969 4.82031C8.17969 4.82031 8.32943 4.97005 8.62891 5.26953C8.92839 5.56901 9.07812 6.14583 9.07812 7C9.07812 7.85417 8.77865 8.58073 8.17969 9.17969C7.58073 9.77865 6.85417 10.0781 6 10.0781C5.14583 10.0781 4.41927 9.77865 3.82031 9.17969C3.22135 8.58073 2.92188 7.85417 2.92188 7C2.92188 6.14583 3.22135 5.41927 3.82031 4.82031C4.41927 4.22135 5.14583 3.92188 6 3.92188C6.85417 3.92188 7.58073 4.22135 8.17969 4.82031ZM9.71094 3.28906C9.71094 3.28906 9.74609 3.32422 9.81641 3.39453C9.88672 3.46484 9.92188 3.59896 9.92188 3.79688C9.92188 3.99479 9.85156 4.16406 9.71094 4.30469C9.57031 4.44531 9.40104 4.51562 9.20312 4.51562C9.00521 4.51562 8.83594 4.44531 8.69531 4.30469C8.55469 4.16406 8.48438 3.99479 8.48438 3.79688C8.48438 3.59896 8.55469 3.42969 8.69531 3.28906C8.83594 3.14844 9.00521 3.07812 9.20312 3.07812C9.40104 3.07812 9.57031 3.14844 9.71094 3.28906ZM6.59766 2.07422C6.59766 2.07422 6.50716 2.07487 6.32617 2.07617C6.14518 2.07747 6.03646 2.07812 6 2.07812C5.96354 2.07812 5.76432 2.07682 5.40234 2.07422C5.04036 2.07161 4.76562 2.07161 4.57812 2.07422C4.39062 2.07682 4.13932 2.08464 3.82422 2.09766C3.50911 2.11068 3.24089 2.13672 3.01953 2.17578C2.79818 2.21484 2.61198 2.26302 2.46094 2.32031C2.20052 2.42448 1.97135 2.57552 1.77344 2.77344C1.57552 2.97135 1.42448 3.20052 1.32031 3.46094C1.26302 3.61198 1.21484 3.79818 1.17578 4.01953C1.13672 4.24089 1.11068 4.50911 1.09766 4.82422C1.08464 5.13932 1.07682 5.39062 1.07422 5.57812C1.07161 5.76562 1.07161 6.04036 1.07422 6.40234C1.07682 6.76432 1.07812 6.96354 1.07812 7C1.07812 7.03646 1.07682 7.23568 1.07422 7.59766C1.07161 7.95964 1.07161 8.23438 1.07422 8.42188C1.07682 8.60938 1.08464 8.86068 1.09766 9.17578C1.11068 9.49089 1.13672 9.75911 1.17578 9.98047C1.21484 10.2018 1.26302 10.388 1.32031 10.5391C1.42448 10.7995 1.57552 11.0286 1.77344 11.2266C1.97135 11.4245 2.20052 11.5755 2.46094 11.6797C2.61198 11.737 2.79818 11.7852 3.01953 11.8242C3.24089 11.8633 3.50911 11.8893 3.82422 11.9023C4.13932 11.9154 4.39062 11.9232 4.57812 11.9258C4.76562 11.9284 5.04036 11.9284 5.40234 11.9258C5.76432 11.9232 5.96354 11.9219 6 11.9219C6.03646 11.9219 6.23568 11.9232 6.59766 11.9258C6.95964 11.9284 7.23438 11.9284 7.42188 11.9258C7.60938 11.9232 7.86068 11.9154 8.17578 11.9023C8.49089 11.8893 8.75911 11.8633 8.98047 11.8242C9.20182 11.7852 9.38802 11.737 9.53906 11.6797C9.79948 11.5755 10.0286 11.4245 10.2266 11.2266C10.4245 11.0286 10.5755 10.7995 10.6797 10.5391C10.737 10.388 10.7852 10.2018 10.8242 9.98047C10.8633 9.75911 10.8893 9.49089 10.9023 9.17578C10.9154 8.86068 10.9232 8.60938 10.9258 8.42188C10.9284 8.23438 10.9284 7.95964 10.9258 7.59766C10.9232 7.23568 10.9219 7.03646 10.9219 7C10.9219 6.96354 10.9232 6.76432 10.9258 6.40234C10.9284 6.04036 10.9284 5.76562 10.9258 5.57812C10.9232 5.39062 10.9154 5.13932 10.9023 4.82422C10.8893 4.50911 10.8633 4.24089 10.8242 4.01953C10.7852 3.79818 10.737 3.61198 10.6797 3.46094C10.5755 3.20052 10.4245 2.97135 10.2266 2.77344C10.0286 2.57552 9.79948 2.42448 9.53906 2.32031C9.38802 2.26302 9.20182 2.21484 8.98047 2.17578C8.75911 2.13672 8.49089 2.11068 8.17578 2.09766C7.86068 2.08464 7.60938 2.07682 7.42188 2.07422C7.23438 2.07161 6.95964 2.07161 6.59766 2.07422ZM11.9609 4.52344C11.987 4.98177 12 5.80729 12 7C12 8.19271 11.987 9.01823 11.9609 9.47656C11.9089 10.5599 11.5859 11.3984 10.9922 11.9922C10.3984 12.5859 9.5599 12.9089 8.47656 12.9609C8.01823 12.987 7.19271 13 6 13C4.80729 13 3.98177 12.987 3.52344 12.9609C2.4401 12.9089 1.60156 12.5859 1.00781 11.9922C0.414062 11.3984 0.0911458 10.5599 0.0390625 9.47656C0.0130208 9.01823 0 8.19271 0 7C0 5.80729 0.0130208 4.98177 0.0390625 4.52344C0.0911458 3.4401 0.414062 2.60156 1.00781 2.00781C1.60156 1.41406 2.4401 1.09115 3.52344 1.03906C3.98177 1.01302 4.80729 1 6 1C7.19271 1 8.01823 1.01302 8.47656 1.03906C9.5599 1.09115 10.3984 1.41406 10.9922 2.00781C11.5859 2.60156 11.9089 3.4401 11.9609 4.52344Z" fill="white"/>
</svg>
