<svg width="65" height="66" viewBox="0 0 65 66" fill="none" xmlns="http://www.w3.org/2000/svg">
<rect y="0.109863" width="65" height="65" rx="5" fill="#F8D100"/>
<path d="M18.418 19.2114C17.5065 19.576 16.8685 20.1229 16.5039 20.8521L16.2305 21.3989V44.231L16.5039 44.7778C16.8685 45.5981 17.4609 46.1906 18.2812 46.5552C18.4635 46.6463 18.7826 46.6919 19.2383 46.6919L23.0664 46.8286H42.4805L46.3086 46.6919C46.7643 46.6919 47.0833 46.6463 47.2656 46.5552C48.0859 46.1906 48.6784 45.5981 49.043 44.7778L49.4531 44.231V21.3989L49.043 20.8521C48.8607 20.4875 48.5872 20.1685 48.2227 19.895L48.0859 19.7583C47.7214 19.4849 47.3112 19.2798 46.8555 19.1431C46.3997 19.0063 45.306 18.938 43.5742 18.938H20.8789C19.5117 19.0291 18.6914 19.1203 18.418 19.2114ZM46.4453 20.7153C46.3542 20.8065 44.1667 22.9256 39.8828 27.0728C35.599 31.2199 33.4115 33.2935 33.3203 33.2935C33.2292 33.2935 30.8594 31.2199 26.2109 27.0728C21.5625 22.9256 19.2155 20.8065 19.1699 20.7153C19.1243 20.6242 23.6589 20.5786 32.7734 20.5786C41.888 20.5786 46.4453 20.6242 46.4453 20.7153ZM26.0742 29.1919C30.8138 33.3846 33.2292 35.481 33.3203 35.481C33.4115 35.481 35.8268 33.2023 40.5664 28.645C45.306 24.0877 47.6986 21.8319 47.7441 21.8774C47.7897 21.923 47.8125 25.5916 47.8125 32.8833V42.3169C47.7214 43.3195 47.6074 43.9575 47.4707 44.231C47.334 44.5044 47.1517 44.7095 46.9238 44.8462C46.696 44.9829 46.3542 45.0513 45.8984 45.0513L42.207 45.188H23.3398L19.6484 45.0513C19.1927 45.0513 18.8509 44.9829 18.623 44.8462C18.3952 44.7095 18.2129 44.5044 18.0762 44.231C17.9395 43.9575 17.8255 43.3195 17.7344 42.3169V32.8833C17.7344 25.5916 17.7572 21.923 17.8027 21.8774C17.8483 21.8319 18.0534 21.9914 18.418 22.356L26.0742 29.1919Z" fill="white"/>
</svg>
