<svg width="14" height="14" viewBox="0 0 14 14" fill="none" xmlns="http://www.w3.org/2000/svg">
<g clip-path="url(#clip0_108_1686)">
<path d="M5.55468 8.8125L9.33593 6.85938L5.55468 4.88281V8.8125ZM6.99999 2.07812C7.87499 2.07812 8.72005 2.08984 9.53515 2.11328C10.3503 2.13672 10.9479 2.16146 11.3281 2.1875L11.8984 2.21875C11.9036 2.21875 11.9479 2.22266 12.0312 2.23047C12.1146 2.23828 12.1745 2.24609 12.2109 2.25391C12.2474 2.26172 12.3086 2.27344 12.3945 2.28906C12.4805 2.30469 12.5547 2.32552 12.6172 2.35156C12.6797 2.3776 12.7526 2.41146 12.8359 2.45312C12.9193 2.49479 13 2.54557 13.0781 2.60547C13.1562 2.66536 13.2318 2.73438 13.3047 2.8125C13.3359 2.84375 13.3763 2.89193 13.4258 2.95703C13.4753 3.02214 13.5508 3.17448 13.6523 3.41406C13.7539 3.65365 13.8229 3.91667 13.8594 4.20312C13.901 4.53646 13.9336 4.89193 13.957 5.26953C13.9805 5.64714 13.9948 5.94271 14 6.15625V6.46875V7.53125C14.0052 8.28646 13.9583 9.04167 13.8594 9.79688C13.8229 10.0833 13.7578 10.3424 13.6641 10.5742C13.5703 10.806 13.487 10.9661 13.4141 11.0547L13.3047 11.1875C13.2318 11.2656 13.1562 11.3346 13.0781 11.3945C13 11.4544 12.9193 11.5039 12.8359 11.543C12.7526 11.582 12.6797 11.6146 12.6172 11.6406C12.5547 11.6667 12.4805 11.6875 12.3945 11.7031C12.3086 11.7188 12.2461 11.7305 12.207 11.7383C12.168 11.7461 12.1081 11.7539 12.0273 11.7617C11.9466 11.7695 11.9036 11.7734 11.8984 11.7734C10.5911 11.8724 8.95833 11.9219 6.99999 11.9219C5.92187 11.9115 4.98567 11.8945 4.1914 11.8711C3.39713 11.8477 2.87499 11.8281 2.62499 11.8125L2.24218 11.7812L1.96093 11.75C1.77343 11.724 1.6315 11.6979 1.53515 11.6719C1.4388 11.6458 1.30598 11.5911 1.13671 11.5078C0.967442 11.4245 0.820306 11.3177 0.695306 11.1875C0.664056 11.1562 0.623692 11.1081 0.574213 11.043C0.524733 10.9779 0.449213 10.8255 0.34765 10.5859C0.246088 10.3464 0.177077 10.0833 0.140619 9.79688C0.0989522 9.46354 0.0664001 9.10807 0.0429626 8.73047C0.0195251 8.35286 0.00520223 8.05729 -6.10348e-06 7.84375V7.53125V6.46875C-0.00521444 5.71354 0.0416606 4.95833 0.140619 4.20312C0.177077 3.91667 0.242181 3.65755 0.335931 3.42578C0.429681 3.19401 0.513015 3.03385 0.585931 2.94531L0.695306 2.8125C0.768223 2.73438 0.843744 2.66536 0.921869 2.60547C0.999994 2.54557 1.08072 2.49479 1.16406 2.45312C1.24739 2.41146 1.32031 2.3776 1.38281 2.35156C1.44531 2.32552 1.51953 2.30469 1.60546 2.28906C1.6914 2.27344 1.7526 2.26172 1.78906 2.25391C1.82551 2.24609 1.88541 2.23828 1.96874 2.23047C2.05208 2.22266 2.09635 2.21875 2.10156 2.21875C3.40885 2.125 5.04166 2.07812 6.99999 2.07812Z" fill="white"/>
</g>
<defs>
<clipPath id="clip0_108_1686">
<rect width="14" height="14" fill="white" transform="matrix(1 0 0 -1 0 14)"/>
</clipPath>
</defs>
</svg>
