<svg width="45" height="45" viewBox="0 0 45 45" fill="none" xmlns="http://www.w3.org/2000/svg">
<rect x="0.5" y="0.894531" width="44" height="44" rx="22" fill="white"/>
<g clip-path="url(#clip0_14_379)">
<path d="M28.1893 23.1816C28.1711 23.2272 28.1483 23.2705 28.121 23.3115C28.0936 23.3525 28.0617 23.3913 28.0253 23.4277L23.0214 28.418C22.9484 28.4909 22.8664 28.5433 22.7753 28.5752C22.6841 28.6071 22.593 28.623 22.5018 28.623C22.4016 28.623 22.3081 28.6048 22.2216 28.5684C22.135 28.5319 22.0552 28.4772 21.9823 28.4043C21.9094 28.3405 21.8547 28.263 21.8182 28.1719C21.7818 28.0807 21.7635 27.985 21.7635 27.8848C21.7635 27.7936 21.7795 27.7025 21.8114 27.6113C21.8433 27.5202 21.8957 27.4382 21.9686 27.3652L25.6874 23.6465H13.4921C13.3918 23.6465 13.2961 23.6283 13.205 23.5918C13.1138 23.5553 13.0318 23.5007 12.9589 23.4277C12.8951 23.3548 12.8427 23.2728 12.8016 23.1816C12.7606 23.0905 12.7401 22.9948 12.7401 22.8945C12.7401 22.7943 12.7606 22.6986 12.8016 22.6074C12.8427 22.5163 12.8951 22.4342 12.9589 22.3613C13.0318 22.2884 13.1138 22.2337 13.205 22.1973C13.2961 22.1608 13.3918 22.1426 13.4921 22.1426H25.6874L21.9686 18.4238C21.8957 18.3509 21.8433 18.2689 21.8114 18.1777C21.7795 18.0866 21.7635 17.9954 21.7635 17.9043C21.7635 17.804 21.7818 17.7083 21.8182 17.6172C21.8547 17.526 21.9094 17.4486 21.9823 17.3848C22.0552 17.3118 22.135 17.2572 22.2216 17.2207C22.3081 17.1842 22.4016 17.166 22.5018 17.166C22.593 17.166 22.6841 17.182 22.7753 17.2139C22.8664 17.2458 22.9484 17.2982 23.0214 17.3711L28.0253 22.3613C28.08 22.416 28.1233 22.4753 28.1552 22.5391C28.1871 22.6029 28.2121 22.6712 28.2303 22.7441C28.2395 22.8171 28.2417 22.89 28.2372 22.9629C28.2326 23.0358 28.2167 23.1087 28.1893 23.1816ZM31.4979 16.1406C31.3977 16.1406 31.302 16.1611 31.2108 16.2021C31.1197 16.2432 31.0376 16.2956 30.9647 16.3594C30.8918 16.4323 30.8371 16.5143 30.8007 16.6055C30.7642 16.6966 30.746 16.7923 30.746 16.8926V28.8965C30.746 28.9967 30.7642 29.0924 30.8007 29.1836C30.8371 29.2747 30.8918 29.3568 30.9647 29.4297C31.0376 29.4935 31.1197 29.5459 31.2108 29.5869C31.302 29.6279 31.3977 29.6484 31.4979 29.6484C31.5982 29.6484 31.6939 29.6279 31.785 29.5869C31.8762 29.5459 31.9582 29.4935 32.0311 29.4297C32.0949 29.3568 32.1473 29.2747 32.1884 29.1836C32.2294 29.0924 32.2499 28.9967 32.2499 28.8965V16.8926C32.2499 16.7923 32.2294 16.6966 32.1884 16.6055C32.1473 16.5143 32.0949 16.4323 32.0311 16.3594C31.9582 16.2956 31.8762 16.2432 31.785 16.2021C31.6939 16.1611 31.5982 16.1406 31.4979 16.1406Z" fill="#E72C5C"/>
</g>
<defs>
<clipPath id="clip0_14_379">
<rect width="21.41" height="14" fill="white" transform="matrix(1 0 0 -1 11.79 29.8945)"/>
</clipPath>
</defs>
</svg>
