<svg width="45" height="45" viewBox="0 0 45 45" fill="none" xmlns="http://www.w3.org/2000/svg">
<rect x="0.5" y="0.894531" width="44" height="44" rx="22" fill="#343434"/>
<g clip-path="url(#clip0_14_390)">
<path d="M28.1966 23.1816C28.1784 23.2272 28.1556 23.2705 28.1283 23.3115C28.101 23.3525 28.0691 23.3913 28.0327 23.4277L23.0311 28.418C22.9582 28.4909 22.8762 28.5433 22.7851 28.5752C22.694 28.6071 22.6029 28.623 22.5118 28.623C22.4116 28.623 22.3182 28.6048 22.2317 28.5684C22.1451 28.5319 22.0654 28.4772 21.9925 28.4043C21.9196 28.3405 21.865 28.263 21.8285 28.1719C21.7921 28.0807 21.7739 27.985 21.7739 27.8848C21.7739 27.7936 21.7898 27.7025 21.8217 27.6113C21.8536 27.5202 21.906 27.4382 21.9788 27.3652L25.6959 23.6465H13.5062C13.406 23.6465 13.3104 23.6283 13.2193 23.5918C13.1282 23.5553 13.0462 23.5007 12.9733 23.4277C12.9095 23.3548 12.8571 23.2728 12.8161 23.1816C12.7751 23.0905 12.7546 22.9948 12.7546 22.8945C12.7546 22.7943 12.7751 22.6986 12.8161 22.6074C12.8571 22.5163 12.9095 22.4342 12.9733 22.3613C13.0462 22.2884 13.1282 22.2337 13.2193 22.1973C13.3104 22.1608 13.406 22.1426 13.5062 22.1426H25.6959L21.9788 18.4238C21.906 18.3509 21.8536 18.2689 21.8217 18.1777C21.7898 18.0866 21.7739 17.9954 21.7739 17.9043C21.7739 17.804 21.7921 17.7083 21.8285 17.6172C21.865 17.526 21.9196 17.4486 21.9925 17.3848C22.0654 17.3118 22.1451 17.2572 22.2317 17.2207C22.3182 17.1842 22.4116 17.166 22.5118 17.166C22.6029 17.166 22.694 17.182 22.7851 17.2139C22.8762 17.2458 22.9582 17.2982 23.0311 17.3711L28.0327 22.3613C28.0873 22.416 28.1306 22.4753 28.1625 22.5391C28.1944 22.6029 28.2194 22.6712 28.2376 22.7441C28.2467 22.8171 28.249 22.89 28.2445 22.9629C28.2399 23.0358 28.224 23.1087 28.1966 23.1816ZM31.5037 16.1406C31.4035 16.1406 31.3078 16.1611 31.2167 16.2021C31.1256 16.2432 31.0436 16.2956 30.9707 16.3594C30.8979 16.4323 30.8432 16.5143 30.8067 16.6055C30.7703 16.6966 30.7521 16.7923 30.7521 16.8926V28.8965C30.7521 28.9967 30.7703 29.0924 30.8067 29.1836C30.8432 29.2747 30.8979 29.3568 30.9707 29.4297C31.0436 29.4935 31.1256 29.5459 31.2167 29.5869C31.3078 29.6279 31.4035 29.6484 31.5037 29.6484C31.6039 29.6484 31.6996 29.6279 31.7907 29.5869C31.8818 29.5459 31.9638 29.4935 32.0366 29.4297C32.1004 29.3568 32.1528 29.2747 32.1938 29.1836C32.2348 29.0924 32.2553 28.9967 32.2553 28.8965V16.8926C32.2553 16.7923 32.2348 16.6966 32.1938 16.6055C32.1528 16.5143 32.1004 16.4323 32.0366 16.3594C31.9638 16.2956 31.8818 16.2432 31.7907 16.2021C31.6996 16.1611 31.6039 16.1406 31.5037 16.1406Z" fill="white"/>
</g>
<defs>
<clipPath id="clip0_14_390">
<rect width="21.4" height="14" fill="white" transform="matrix(1 0 0 -1 11.805 29.8945)"/>
</clipPath>
</defs>
</svg>
