<svg width="108" height="115" viewBox="0 0 108 115" fill="none" xmlns="http://www.w3.org/2000/svg">
<rect width="108" height="108" rx="54" fill="#00A4E4"/>
<path d="M66.1665 53.5189C69.0261 49.4361 70.5377 44.6433 70.5377 39.6588V28.5451C70.5377 27.9963 70.1564 27.5207 69.6208 27.4012L54.4889 24.0279C54.3209 23.9909 54.147 23.9909 53.979 24.0279L38.8476 27.4012C38.3115 27.5207 37.9307 27.9963 37.9307 28.5451V39.6588C37.9307 44.6433 39.4422 49.4361 42.3019 53.5185C45.1615 57.6013 49.1491 60.6596 53.8339 62.3634C53.9629 62.4101 54.0989 62.4339 54.2339 62.4339C54.3694 62.4339 54.5054 62.4101 54.6345 62.3634C59.3192 60.6601 63.3068 57.6013 66.1665 53.5189ZM54.2339 60.0105C50.1772 58.4463 46.7216 55.7437 44.2217 52.174C41.6395 48.4877 40.2744 44.1599 40.2744 39.6588V29.4845L54.2339 26.3726L68.1939 29.4845V39.6588C68.1939 44.1595 66.8289 48.4872 64.2466 52.174C61.7463 55.7437 58.2906 58.4463 54.2339 60.0105Z" fill="white"/>
<path d="M66.2004 32.0218C66.2004 31.4725 65.8196 30.9974 65.2835 30.8779L54.4894 28.4714C54.3214 28.4343 54.147 28.4343 53.979 28.4714L43.1845 30.8779C42.5528 31.0189 42.155 31.6451 42.296 32.2768C42.4365 32.9085 43.0632 33.3063 43.6944 33.1653L54.234 30.8161L63.8567 32.9612V39.6587C63.8567 43.265 62.7631 46.7321 60.6944 49.686C59.0323 52.0591 56.8066 53.9817 54.234 55.274C51.6614 53.9822 49.4362 52.0591 47.774 49.686C45.9846 47.1313 44.9098 44.1448 44.6663 41.0503C44.6457 40.7921 44.631 40.5312 44.6223 40.274C44.5999 39.6267 44.0538 39.1208 43.4106 39.1428C42.7638 39.1652 42.2575 39.7077 42.28 40.3545C42.29 40.6461 42.3065 40.9423 42.3294 41.2343C42.6059 44.7458 43.8249 48.1333 45.8542 51.0305C47.8587 53.892 50.5861 56.1771 53.7419 57.6383C53.898 57.7107 54.0665 57.7468 54.2345 57.7468C54.4025 57.7468 54.5705 57.7107 54.7266 57.6383C57.8828 56.1767 60.6102 53.892 62.6143 51.0305C64.9603 47.681 66.2009 43.7484 66.2009 39.6587V32.0218H66.2004Z" fill="white"/>
<path d="M50.8959 45.742C51.101 45.9846 51.3953 46.1334 51.7126 46.1544C51.7386 46.1563 51.7647 46.1572 51.7908 46.1572C52.0801 46.1572 52.3607 46.0501 52.5768 45.8546L61.0729 38.1678C61.5527 37.7339 61.5897 36.9927 61.1558 36.5126C60.7214 36.0328 59.9802 35.9957 59.5005 36.4297L51.903 43.303L49.7346 40.7382C49.3171 40.2442 48.5773 40.182 48.0834 40.5999C47.589 41.0179 47.5272 41.7572 47.9447 42.2515L50.8959 45.742Z" fill="white"/>
<path d="M44.3663 62.7837C43.7488 61.9716 42.8511 61.4552 41.839 61.3289C40.8269 61.203 39.8299 61.4827 39.0315 62.1176C38.658 62.4147 38.3563 62.7708 38.1288 63.1631L37.7846 62.7145C37.4788 62.3167 37.3108 61.8214 37.3108 61.3197V50.7477C37.3108 48.5879 35.5534 46.8306 33.3937 46.8306C31.3622 46.8306 29.6858 48.3558 29.494 50.3778L28.2397 63.6058C28.1294 64.7644 28.4563 65.9138 29.1635 66.8477L39.1245 79.818V82.8282C39.1245 83.4755 39.6491 84.0001 40.2963 84.0001C40.9432 84.0001 41.4682 83.4755 41.4682 82.8282V79.4197C41.4682 79.1615 41.3826 78.9107 41.2256 78.7061L31.0271 65.4263C30.6796 64.9676 30.5185 64.3996 30.573 63.8269L31.8277 50.5993C31.9046 49.7868 32.578 49.1743 33.3937 49.1743C34.2616 49.1743 34.9671 49.8802 34.9671 50.7477V61.3197C34.9671 62.335 35.3076 63.3371 35.9261 64.1418L38.3792 67.3366C38.3829 67.3416 38.3866 67.3466 38.3902 67.3517L40.3696 69.9294C40.7642 70.4425 41.4998 70.5391 42.013 70.145C42.5261 69.7508 42.6227 69.0152 42.2286 68.5016L40.2428 65.9157C39.7827 65.3069 39.8926 64.4279 40.4914 63.9519C40.7921 63.7125 41.1679 63.6072 41.5492 63.6543C41.9306 63.7019 42.2689 63.8969 42.5014 64.2027L47.2324 70.4201C48.1635 71.6437 48.6762 73.1644 48.6762 74.702V82.8282C48.6762 83.4755 49.2008 84.0001 49.8481 84.0001C50.4953 84.0001 51.0199 83.4755 51.0199 82.8282V74.702C51.0199 72.6549 50.3374 70.6302 49.0978 69.001L44.3663 62.7837Z" fill="white"/>
<path d="M79.9008 63.6058L78.646 50.3778C78.4542 48.3558 76.7774 46.8306 74.7463 46.8306C72.5866 46.8306 70.8292 48.5879 70.8292 50.7477V61.3197C70.8292 61.8214 70.6608 62.3167 70.3555 62.7145L70.0108 63.1631C69.7837 62.7713 69.482 62.4152 69.1085 62.1176C68.3102 61.4827 67.3132 61.203 66.301 61.3289C65.2889 61.4552 64.3912 61.9716 63.7737 62.7837L59.0427 69.001C57.8031 70.6302 57.1201 72.6549 57.1201 74.7025V82.8282C57.1201 83.4755 57.6452 84.0001 58.292 84.0001C58.9393 84.0001 59.4639 83.4755 59.4639 82.8282V74.702C59.4639 73.1644 59.9766 71.6437 60.9077 70.4201L65.6387 64.2027C65.8717 63.8969 66.2099 63.7024 66.5913 63.6543C66.9726 63.6072 67.3484 63.7125 67.6492 63.9519C68.2475 64.4279 68.3578 65.3069 67.8973 65.9157L65.9119 68.5016C65.5178 69.0152 65.6144 69.7508 66.1275 70.145C66.6407 70.5391 67.3763 70.4425 67.7709 69.9294L69.7498 67.3517C69.7535 67.3471 69.7567 67.3425 69.7604 67.338L72.2144 64.1423C72.8324 63.3371 73.173 62.335 73.173 61.3197V50.7477C73.173 49.8802 73.8789 49.1743 74.7463 49.1743C75.5621 49.1743 76.2354 49.7868 76.3128 50.5993L77.5675 63.8269C77.6216 64.4 77.4604 64.9676 77.1176 65.4204L66.9144 78.7061C66.7574 78.9107 66.6723 79.162 66.6723 79.4202V82.8282C66.6723 83.4755 67.1969 84.0001 67.8442 84.0001C68.4914 84.0001 69.016 83.4755 69.016 82.8282V79.818L78.9811 66.8417C79.6838 65.9138 80.0106 64.7644 79.9008 63.6058Z" fill="white"/>
<path d="M42.7889 37.1365C43.2014 37.4116 43.7598 37.3942 44.1526 37.0916C44.522 36.8069 44.6955 36.3097 44.571 35.8584C44.4378 35.3745 44.0047 35.0193 43.5017 34.9918C43.0036 34.9648 42.5335 35.2688 42.3508 35.7316C42.1503 36.2402 42.3357 36.8316 42.7889 37.1365Z" fill="white"/>
</svg>
