<svg width="60" height="201" viewBox="0 0 60 201" fill="none" xmlns="http://www.w3.org/2000/svg">
<g clip-path="url(#clip0_10_349)">
<g clip-path="url(#clip1_10_349)">
<g clip-path="url(#clip2_10_349)">
<path opacity="0.3" d="M59.9165 204.262C59.7192 199.067 58.7328 193.97 58.6341 188.874C58.6341 187.575 56.464 187.076 56.2668 188.575C54.0967 201.465 49.7565 213.755 45.0217 225.846C43.2462 230.342 41.372 234.739 39.5965 239.235C37.2291 236.937 36.0455 233.24 34.7632 230.242C34.0727 228.544 33.2836 226.845 32.4944 225.146C33.4808 224.847 34.2699 223.947 34.1713 222.948C32.2971 207.46 34.4673 192.272 37.9197 177.184C38.5115 177.483 39.1034 177.683 39.7939 177.783C42.8517 178.383 45.0217 176.284 46.5013 173.786C49.6578 168.69 50.6442 162.595 50.9401 156.699C51.4334 147.107 50.447 137.414 48.8687 127.822C49.6578 121.727 49.4605 115.631 45.0217 110.835C42.9503 108.637 39.3992 110.935 40.0897 113.733C41.0761 117.43 41.964 121.227 42.6545 125.024C42.4572 127.422 42.0626 129.72 41.668 132.019C40.3857 139.513 38.7088 146.807 37.0319 154.201C36.2428 157.699 35.355 161.296 34.6645 164.793C33.6781 161.196 33.5794 157.199 33.1849 153.602C32.593 147.307 31.2121 141.012 30.0284 134.816C29.042 129.62 27.8583 124.424 26.6746 119.228C26.6746 119.129 26.6746 118.929 26.6746 118.829C26.3787 114.732 26.6746 110.935 27.2665 106.838C27.8583 102.941 28.7461 98.944 29.6339 95.1469C30.2257 92.5489 30.9162 89.9509 31.7053 87.253C32.0012 87.253 32.1985 87.1531 32.4944 87.1531C34.3686 86.4537 35.9469 84.8549 37.4265 83.456C37.821 83.1562 38.2155 82.7565 38.6101 82.3568C38.8074 82.1569 39.0047 81.9572 39.1033 81.6574C42.3584 79.1593 44.9232 76.1616 46.6987 72.3645C48.8688 67.6682 50.0524 62.5722 50.3483 57.4761C51.0388 45.6853 46.8959 34.8937 43.0489 24.0021C42.753 23.2027 42.4571 22.5033 42.2599 21.7039C41.4707 15.109 39.6952 8.71395 37.0319 2.51876C36.3414 0.92 34.0726 0.420388 32.6917 1.01992C31.0148 1.8193 30.423 3.41808 30.6203 5.21668C31.4094 10.6125 33.1849 16.1083 35.0591 21.5041C36.1441 30.2972 35.4536 39.2902 34.1713 47.8836C31.8039 63.0718 26.872 77.6605 24.0114 92.6489C23.4196 95.9463 22.9264 99.3437 22.4332 102.641C21.94 100.943 21.4468 99.3437 20.9536 97.645C18.9808 90.9502 16.8106 84.3553 14.3446 77.7604C12.4704 72.6643 10.0045 67.1686 4.77652 64.6706C2.11323 63.4715 -0.352827 65.4699 0.0417346 68.3677C1.61998 77.7604 4.18468 86.9533 7.73573 95.7464C10.9909 103.741 14.8379 111.734 19.9672 118.729C21.7427 126.023 23.3209 133.417 24.7018 140.812C25.8855 147.207 26.7733 153.702 28.0556 160.197C28.9434 164.593 30.2257 169.19 32.889 172.887C31.2121 181.38 29.9298 189.874 29.1406 198.467C28.5488 204.962 28.5488 211.457 29.042 217.952C26.8719 213.455 24.7019 208.959 22.5318 204.562C17.7971 195.07 12.2731 185.877 6.45336 176.984C5.07239 174.885 1.4227 175.485 1.52134 178.383C1.61998 180.881 1.81731 183.379 2.31051 185.877C2.80371 188.275 3.09966 190.773 3.6915 193.271C4.87519 197.967 6.74933 202.464 9.21534 206.561C13.4569 213.555 19.5725 219.251 26.6746 223.048C28.5488 226.745 30.3243 230.542 32.0999 234.339C33.4808 237.437 35.2564 240.834 38.0183 242.932C35.5523 249.427 33.3823 256.022 31.804 262.717C30.2258 269.812 29.7325 276.906 30.5216 284.101C30.6203 285 31.9026 285 31.9026 284.101C32.0999 271.211 35.6509 258.62 40.3857 246.73C40.6816 245.93 41.0762 245.131 41.3721 244.231C44.0354 244.631 46.6987 243.532 48.7701 241.534C54.7872 235.838 57.9437 226.945 59.0287 218.851C60.0151 213.955 60.1138 209.159 59.9165 204.262ZM55.6749 208.559C55.6749 208.159 55.7735 207.86 55.8722 207.46C55.9708 207.56 56.1681 207.66 56.3654 207.66C55.9708 207.86 55.7736 208.159 55.6749 208.559Z" fill="white"/>
</g>
</g>
</g>
<defs>
<clipPath id="clip0_10_349">
<rect width="60" height="284" fill="white" transform="translate(0 0.774658)"/>
</clipPath>
<clipPath id="clip1_10_349">
<rect width="60" height="284" fill="white" transform="translate(0 0.774658)"/>
</clipPath>
<clipPath id="clip2_10_349">
<rect width="60" height="284" fill="white" transform="translate(0 0.774658)"/>
</clipPath>
</defs>
</svg>
