<svg width="13" height="12" viewBox="0 0 13 12" fill="none" xmlns="http://www.w3.org/2000/svg">
<g clip-path="url(#clip0_108_1673)">
<path d="M12.3201 4.75449V10.0715C12.3201 10.3661 12.2152 10.6183 12.0053 10.8282C11.7955 11.038 11.5433 11.1429 11.2486 11.1429H1.3915C1.09685 11.1429 0.844622 11.038 0.6348 10.8282C0.424979 10.6183 0.320068 10.3661 0.320068 10.0715V4.75449C0.516497 4.97324 0.741943 5.16744 0.996408 5.33708C2.61248 6.43529 3.72185 7.20538 4.32453 7.64735C4.579 7.83485 4.78547 7.98105 4.94395 8.08596C5.10243 8.19087 5.31337 8.29802 5.57677 8.40739C5.84016 8.51677 6.08569 8.57145 6.31337 8.57145H6.32007H6.32677C6.55444 8.57145 6.79998 8.51677 7.06337 8.40739C7.32677 8.29802 7.5377 8.19087 7.69618 8.08596C7.85467 7.98105 8.06114 7.83485 8.3156 7.64735C9.07453 7.09824 10.1861 6.32815 11.6504 5.33708C11.9049 5.16297 12.1281 4.96878 12.3201 4.75449ZM12.3201 2.78574C12.3201 3.13842 12.2107 3.47547 11.9919 3.7969C11.7732 4.11833 11.5009 4.39288 11.175 4.62056C9.49641 5.78574 8.45177 6.51119 8.04105 6.7969C7.99641 6.82815 7.90154 6.89623 7.75645 7.00114C7.61136 7.10605 7.49083 7.19087 7.39485 7.25561C7.29886 7.32034 7.18279 7.39288 7.04663 7.47324C6.91047 7.5536 6.78212 7.61387 6.66159 7.65404C6.54105 7.69422 6.42944 7.71431 6.32677 7.71431H6.32007H6.31337C6.21069 7.71431 6.09909 7.69422 5.97855 7.65404C5.85802 7.61387 5.72967 7.5536 5.59351 7.47324C5.45735 7.39288 5.34127 7.32034 5.24529 7.25561C5.14931 7.19087 5.02877 7.10605 4.88368 7.00114C4.7386 6.89623 4.64373 6.82815 4.59909 6.7969C4.19284 6.51119 3.60801 6.10382 2.84462 5.5748C2.08123 5.04578 1.62364 4.7277 1.47185 4.62056C1.19507 4.43306 0.933908 4.17525 0.688372 3.84712C0.442836 3.519 0.320068 3.21431 0.320068 2.93306C0.320068 2.58485 0.412702 2.29467 0.59797 2.06253C0.783238 1.83038 1.04775 1.71431 1.3915 1.71431H11.2486C11.5388 1.71431 11.7899 1.81922 12.002 2.02904C12.214 2.23886 12.3201 2.4911 12.3201 2.78574Z" fill="white"/>
</g>
<defs>
<clipPath id="clip0_108_1673">
<rect width="12.02" height="12" fill="white" transform="matrix(1 0 0 -1 0.310059 12)"/>
</clipPath>
</defs>
</svg>
