<svg width="108" height="115" viewBox="0 0 108 115" fill="none" xmlns="http://www.w3.org/2000/svg">
<rect width="108" height="108" rx="54" fill="#F8D100"/>
<path d="M48.1934 80.129H50.1288V83.0323C50.1288 83.5662 50.5612 84 51.0966 84H56.903C57.4384 84 57.8708 83.5662 57.8708 83.0323V80.129H59.8063V78.1935H48.1934V80.129ZM55.9353 82.0645H52.0643V80.129H55.9353V82.0645Z" fill="#001721"/>
<path d="M73.3552 40.4516H69.9846C69.5711 38.7349 68.8902 37.1127 67.9494 35.6129L71.1362 32.4262C71.5146 32.0477 71.5146 31.4362 71.1362 31.0577L67.2652 27.1867C66.8867 26.8082 66.2752 26.8082 65.8967 27.1867L62.71 30.3735C61.2102 29.4341 59.588 28.7518 57.8713 28.3383V24.9677C57.8713 24.4338 57.4389 24 56.9035 24H51.0971C50.5617 24 50.1293 24.4338 50.1293 24.9677V28.3383C48.4126 28.7518 46.7904 29.4327 45.2906 30.3735L42.1039 27.1867C41.7254 26.8082 41.1139 26.8082 40.7354 27.1867L36.8645 31.0577C36.486 31.4362 36.486 32.0477 36.8645 32.4262L40.0512 35.6129C39.1104 37.1127 38.4295 38.7349 38.016 40.4516H34.6455C34.1101 40.4516 33.6777 40.8854 33.6777 41.4194V47.2258C33.6777 47.7598 34.1101 48.1935 34.6455 48.1935H38.017C38.0992 48.5342 38.197 48.8702 38.3005 49.2048C37.8738 49.3054 37.5487 49.6712 37.5487 50.129C37.5487 55.7021 40.3475 60.8526 45.0341 63.9038C45.7901 64.3957 46.2584 65.3034 46.2584 66.273V70.4516H44.3229V72.3871H46.2584V74.3226H44.3229V76.2581H63.6777V74.3226H61.7423V72.3871H63.6777V70.4516H61.7423V66.273C61.7423 65.3043 62.2105 64.3966 62.9666 63.9047C67.6531 60.8526 70.4519 55.7021 70.4519 50.129C70.4519 49.6712 70.1268 49.3054 69.7001 49.2048C69.8036 48.8702 69.9014 48.5342 69.9837 48.1935H73.3552C73.8905 48.1935 74.3229 47.7598 74.3229 47.2258V41.4194C74.3229 40.8854 73.8905 40.4516 73.3552 40.4516ZM59.8068 74.3226H48.1939V72.3871H59.8068V74.3226ZM48.1939 70.4516V68.5161H59.8068V70.4516H48.1939ZM61.9095 62.283C60.5926 63.1392 59.8068 64.6315 59.8068 66.273V66.5806H54.9681V61.7419H55.9358C58.6037 61.7419 60.7745 59.5711 60.7745 56.9032C60.7745 56.3693 60.3421 55.9355 59.8068 55.9355H57.8713C56.7372 55.9355 55.7066 56.3438 54.8802 57.001C54.4676 54.748 52.4996 53.0323 50.1293 53.0323H48.1939C47.6585 53.0323 47.2261 53.466 47.2261 54C47.2261 56.6679 49.3969 58.8387 52.0648 58.8387H53.0326V66.5806H48.1939V66.273C48.1939 64.6315 47.408 63.1402 46.0911 62.283C42.2268 59.7668 39.8183 55.6373 39.5163 51.0968H68.4843C68.1824 55.6364 65.7739 59.7658 61.9095 62.283ZM55.1334 59.8064C55.5332 58.6799 56.6092 57.871 57.8713 57.871H58.6736C58.2739 58.9975 57.1979 59.8064 55.9358 59.8064H55.1334ZM52.8672 56.9032H52.0648C50.8027 56.9032 49.7268 56.0943 49.327 54.9677H50.1293C51.3915 54.9677 52.4674 55.7767 52.8672 56.9032ZM43.3552 44.3226C43.3552 38.4533 48.131 33.6774 54.0003 33.6774C59.8696 33.6774 64.6455 38.4533 64.6455 44.3226C64.6455 46.0123 64.2245 47.6681 63.4599 49.1613H58.7318C59.9906 47.9303 60.7745 46.2174 60.7745 44.3226C60.7745 40.5872 57.7347 37.5484 54.0003 37.5484C50.2659 37.5484 47.2261 40.5872 47.2261 44.3226C47.2261 46.2174 48.01 47.9303 49.2689 49.1613H44.5407C43.7762 47.6681 43.3552 46.0133 43.3552 44.3226ZM49.1616 44.3226C49.1616 41.6547 51.3324 39.4839 54.0003 39.4839C56.6682 39.4839 58.839 41.6547 58.839 44.3226C58.839 46.9905 56.6682 49.1613 54.0003 49.1613C51.3324 49.1613 49.1616 46.9905 49.1616 44.3226ZM72.3874 46.2581H69.2026C68.7381 46.2581 68.3383 46.5888 68.2523 47.0448C68.1157 47.765 67.9069 48.4704 67.6631 49.1613H65.6132C66.2478 47.635 66.581 45.9892 66.581 44.3226C66.581 37.3858 60.9371 31.7419 54.0003 31.7419C47.0636 31.7419 41.4197 37.3858 41.4197 44.3226C41.4197 45.9901 41.7514 47.636 42.3865 49.1613H40.3376C40.0928 48.4704 39.8849 47.7659 39.7483 47.0448C39.6623 46.5888 39.2626 46.2581 38.7981 46.2581H35.6132V42.3871H38.7981C39.2626 42.3871 39.6623 42.0563 39.7483 41.6003C40.1297 39.594 40.9155 37.7237 42.0874 36.0405C42.3553 35.6564 42.309 35.1347 41.9782 34.8039L38.9171 31.7419L41.4197 29.2394L44.4807 32.3005C44.8115 32.6322 45.3332 32.6766 45.7173 32.4096C47.3986 31.2387 49.2689 30.4519 51.2771 30.0706C51.7341 29.9846 52.0648 29.5848 52.0648 29.1203V25.9355H55.9358V29.1203C55.9358 29.5848 56.2666 29.9846 56.7226 30.0706C58.7308 30.4519 60.6011 31.2387 62.2824 32.4096C62.6656 32.6766 63.1882 32.6312 63.519 32.3005L66.581 29.2394L69.0835 31.7419L66.0224 34.803C65.6907 35.1338 65.6444 35.6554 65.9133 36.0396C67.0851 37.7228 67.871 39.593 68.2523 41.5994C68.3383 42.0563 68.7381 42.3871 69.2026 42.3871H72.3874V46.2581Z" fill="#001721"/>
</svg>
