<svg width="65" height="57" viewBox="0 0 65 57" fill="none" xmlns="http://www.w3.org/2000/svg">
<path d="M64.1172 27.0664C64.3398 27.5117 64.4512 28.0684 64.4512 28.7363C64.4512 29.293 64.3398 29.8496 64.1172 30.2949C58.1055 42.0957 46.082 50 32.5 50C18.8066 50 6.7832 42.0957 0.771484 30.2949C0.548828 29.8496 0.4375 29.293 0.4375 28.625C0.4375 28.0684 0.548828 27.5117 0.771484 27.0664C6.7832 15.2656 18.8066 7.25 32.5 7.25C46.082 7.25 58.1055 15.2656 64.1172 27.0664ZM32.5 44.6562V44.7676C41.2949 44.7676 48.5312 37.5312 48.5312 28.7363V28.625C48.5312 19.8301 41.2949 12.5938 32.5 12.5938C23.5938 12.5938 16.4688 19.8301 16.4688 28.625C16.4688 37.5312 23.5938 44.6562 32.5 44.6562ZM32.5 17.9375V18.0488C38.4004 18.0488 43.1875 22.7246 43.1875 28.625C43.1875 34.5254 38.4004 39.3125 32.5 39.3125C26.5996 39.3125 21.8125 34.5254 21.8125 28.625C21.8125 27.7344 21.9238 26.7324 22.1465 25.8418C23.0371 26.5098 24.1504 26.8438 25.375 26.8438C28.2695 26.8438 30.6074 24.5059 30.6074 21.6113C30.6074 20.3867 30.2734 19.2734 29.6055 18.3828C30.4961 18.1602 31.498 18.0488 32.5 17.9375Z" fill="#1DAAE2"/>
</svg>
