<svg width="71" height="71" viewBox="0 0 71 71" fill="none" xmlns="http://www.w3.org/2000/svg">
<rect x="0.875" y="0.5" width="70" height="70" rx="35" fill="#F8D100"/>
<path d="M30.4902 23.8274C31.0158 22.8577 31.7936 22.0479 32.7414 21.4835C33.6892 20.9192 34.7718 20.6213 35.8749 20.6213C36.978 20.6213 38.0606 20.9192 39.0084 21.4835C39.9562 22.0479 40.734 22.8577 41.2597 23.8274C41.9027 23.1448 42.738 22.6737 43.6548 22.4767C44.5717 22.2797 45.5268 22.3661 46.3934 22.7243C47.2601 23.0826 47.9974 23.6958 48.5075 24.4827C49.0177 25.2696 49.2765 26.193 49.2498 27.1304C49.2232 28.0678 48.9121 28.975 48.3581 29.7316C47.804 30.4882 47.033 31.0585 46.1474 31.3668C45.2617 31.6752 44.3033 31.7071 43.3991 31.4582C42.4949 31.2094 41.6878 30.6915 41.0847 29.9734C40.5354 30.8608 39.7685 31.5932 38.8567 32.101C37.945 32.6088 36.9186 32.8752 35.8749 32.8749C34.8317 32.8751 33.8058 32.6088 32.8944 32.1013C31.9829 31.5939 31.2162 30.862 30.6669 29.9752C30.0637 30.693 29.2565 31.2106 28.3524 31.4593C27.4482 31.7079 26.4899 31.6759 25.6044 31.3674C24.7189 31.059 23.9481 30.4887 23.3941 29.7321C22.8401 28.9756 22.5292 28.0685 22.5025 27.1312C22.4758 26.1939 22.7347 25.2706 23.2447 24.4838C23.7547 23.6969 24.4919 23.0837 25.3584 22.7254C26.2249 22.3671 27.1799 22.2806 28.0967 22.4774C29.0135 22.6742 29.8471 23.145 30.4902 23.8274ZM31.5997 25.8224C31.7802 26.508 31.8011 27.2258 31.6609 27.9207C31.9172 28.842 32.4682 29.654 33.2297 30.2326C33.9912 30.8112 34.9212 31.1244 35.8775 31.1244C36.8339 31.1244 37.7639 30.8112 38.5254 30.2326C39.2868 29.654 39.8378 28.842 40.0942 27.9207C39.9537 27.2253 39.9741 26.507 40.1537 25.8207C39.9415 24.844 39.4015 23.9694 38.6234 23.3422C37.8454 22.715 36.8761 22.373 35.8767 22.373C34.8773 22.373 33.908 22.715 33.1299 23.3422C32.3518 23.9694 31.8118 24.8458 31.5997 25.8224ZM29.8042 25.9467C29.557 25.3167 29.0956 24.794 28.5011 24.4707C27.9066 24.1474 27.2171 24.0442 26.5539 24.1792C25.8908 24.3142 25.2965 24.6788 24.8757 25.2087C24.4549 25.7387 24.2345 26.4002 24.2533 27.0766C24.2722 27.7531 24.529 28.4013 24.9786 28.907C25.4283 29.4128 26.0419 29.7438 26.7115 29.8417C27.3811 29.9396 28.0638 29.7981 28.6394 29.4423C29.215 29.0864 29.6467 28.5389 29.8584 27.8962C29.7363 27.2534 29.718 26.5952 29.8042 25.9467ZM41.8949 27.8944C42.1064 28.5378 42.5382 29.086 43.1141 29.4424C43.69 29.7988 44.3732 29.9406 45.0434 29.8428C45.7136 29.745 46.3278 29.4139 46.7779 28.9078C47.2279 28.4017 47.485 27.753 47.5039 27.076C47.5227 26.399 47.3022 25.737 46.8809 25.2067C46.4597 24.6763 45.8649 24.3115 45.2012 24.1766C44.5375 24.0417 43.8475 24.1452 43.2526 24.469C42.6577 24.7928 42.1962 25.316 41.9492 25.9467C42.0351 26.5947 42.0168 27.2522 41.8949 27.8944ZM23.5392 32.5197C24.1464 32.3587 24.7204 32.5582 25.1159 32.8452C25.2734 32.9589 25.4904 33.0989 25.7547 33.2267C25.957 33.3315 26.1104 33.5111 26.1823 33.7273C26.2543 33.9435 26.2391 34.1792 26.1399 34.3843C26.0408 34.5895 25.8655 34.7479 25.6514 34.8258C25.4373 34.9037 25.2012 34.8951 24.9934 34.8017C24.6765 34.6491 24.3737 34.4687 24.0887 34.2627C24.0603 34.2424 24.029 34.2265 23.9959 34.2154L23.9837 34.2137C23.7477 34.2767 23.5137 34.3467 23.2819 34.4237L22.0814 34.8157C21.6337 34.9614 21.2291 35.2157 20.9036 35.5559C20.5781 35.8961 20.3418 36.3115 20.2159 36.7652L19.7207 40.3509C19.6227 41.0562 19.9954 41.5847 20.5257 41.7107C20.9165 41.8063 21.3907 41.8997 21.9484 41.9907C22.0619 42.0091 22.1707 42.0496 22.2686 42.11C22.3664 42.1705 22.4514 42.2496 22.5187 42.3429C22.586 42.4361 22.6342 42.5418 22.6607 42.6537C22.6871 42.7656 22.6913 42.8816 22.6729 42.9952C22.6545 43.1087 22.614 43.2175 22.5535 43.3153C22.4931 43.4132 22.414 43.4982 22.3207 43.5655C22.2274 43.6327 22.1218 43.681 22.0099 43.7074C21.898 43.7339 21.7819 43.7381 21.6684 43.7197C21.1491 43.637 20.6331 43.5348 20.1214 43.4134C18.5552 43.0407 17.7887 41.5409 17.9864 40.1112L18.4974 36.4257L18.5079 36.3784C18.6996 35.6291 19.0776 34.9404 19.607 34.3765C20.1363 33.8126 20.7997 33.3918 21.5354 33.1532L22.7342 32.7594C23.0025 32.6719 23.2708 32.592 23.5392 32.5197ZM48.4399 32.5197C48.1697 32.4535 47.8881 32.4484 47.6157 32.5047C47.3432 32.561 47.0868 32.6773 46.8649 32.8452C46.7074 32.9589 46.4904 33.0989 46.2262 33.2267C46.0239 33.3315 45.8704 33.5111 45.7985 33.7273C45.7265 33.9435 45.7418 34.1792 45.8409 34.3843C45.9401 34.5895 46.1153 34.7479 46.3294 34.8258C46.5435 34.9037 46.7796 34.8951 46.9874 34.8017C47.3043 34.6491 47.6071 34.4687 47.8922 34.2627C47.9205 34.2424 47.9518 34.2265 47.9849 34.2154L47.9937 34.2137H47.9972C48.234 34.2755 48.4679 34.3455 48.6989 34.4237L49.8994 34.8157C50.8199 35.1184 51.5182 35.8552 51.7649 36.7652L52.2602 40.3509C52.3582 41.0562 51.9872 41.5847 51.4552 41.7107C50.9846 41.8218 50.51 41.9152 50.0324 41.9907C49.8031 42.0278 49.598 42.1545 49.4621 42.3429C49.3263 42.5312 49.2708 42.7659 49.3079 42.9952C49.345 43.2244 49.4717 43.4296 49.6601 43.5655C49.8485 43.7013 50.0831 43.7568 50.3124 43.7197C50.9097 43.6205 51.4254 43.5184 51.8594 43.4134C53.4257 43.0407 54.1922 41.5409 53.9944 40.1112L53.4834 36.4257L53.4729 36.3784C53.2813 35.6291 52.9032 34.9404 52.3738 34.3765C51.8445 33.8126 51.1811 33.3918 50.4454 33.1532L49.2467 32.7594C48.9805 32.6724 48.7103 32.5924 48.4399 32.5197Z" fill="white"/>
<path d="M39.0092 35.3599C39.6374 34.9434 40.5142 34.6424 41.4189 34.8962C41.6919 34.9732 41.9644 35.0566 42.2362 35.1464L43.9144 35.6977C44.8882 36.0139 45.7663 36.5711 46.4669 37.3177C47.1676 38.0642 47.6681 38.9758 47.9219 39.9677L47.9342 40.0149L48.6447 45.1529C48.9019 47.0079 47.9097 48.9154 45.9252 49.3879C43.9127 49.8674 40.6542 50.3749 35.8749 50.3749C31.0974 50.3749 27.8372 49.8674 25.8247 49.3879C23.8402 48.9154 22.8479 47.0079 23.1052 45.1529L23.8157 40.0149L23.8279 39.9677C24.0818 38.9758 24.5823 38.0642 25.283 37.3177C25.9836 36.5711 26.8617 36.0139 27.8354 35.6977L29.5154 35.1464C29.7861 35.0566 30.0579 34.9732 30.3309 34.8962C31.2357 34.6407 32.1124 34.9434 32.7407 35.3599C33.4109 35.8044 34.5134 36.3504 35.8749 36.3504C37.2364 36.3504 38.3407 35.8044 39.0092 35.3599ZM40.9429 36.5797C40.6944 36.5097 40.3479 36.5727 39.9769 36.8177C39.1422 37.3724 37.7019 38.1004 35.8749 38.1004C34.0479 38.1004 32.6077 37.3724 31.7729 36.8177C31.4037 36.5727 31.0554 36.5097 30.8069 36.5797C30.5561 36.6497 30.3076 36.7255 30.0614 36.8072L28.3814 37.3602C27.6959 37.5834 27.0768 37.9739 26.58 38.4963C26.0832 39.0188 25.7244 39.6568 25.5359 40.3527L24.8377 45.3927C24.6802 46.5249 25.2804 47.4577 26.2307 47.6852C28.0979 48.1314 31.2217 48.6249 35.8749 48.6249C40.5282 48.6249 43.6519 48.1314 45.5192 47.6852C46.4694 47.4577 47.0679 46.5249 46.9122 45.3927L46.2139 40.3527C46.0255 39.6568 45.6667 39.0188 45.1699 38.4963C44.6731 37.9739 44.054 37.5834 43.3684 37.3602L41.6884 36.8089C41.4423 36.7273 41.1938 36.6514 40.9429 36.5814" fill="white"/>
</svg>
