<svg width="71" height="70" viewBox="0 0 71 70" fill="none" xmlns="http://www.w3.org/2000/svg">
<rect x="0.638184" width="69.9735" height="70" rx="34.9867" fill="#007F01"/>
<path d="M36.3663 21.875C37.677 21.875 38.9913 22.25 40.1163 23.1875L44.0538 26.5625C44.2413 26.75 44.2413 27.125 44.0538 27.3125C43.8663 27.5 43.8663 27.875 44.0538 28.0625L45.0101 28.9062C45.1938 29.0825 45.4957 29.0562 45.7376 28.8125C46.0338 28.5162 46.1126 28.4881 46.4857 28.8125L48.3607 30.5206C48.7076 30.86 48.7282 31.0625 48.5407 31.25L45.5407 34.8125C45.3345 35.0731 45.0345 35.1838 44.7907 35L43.1088 33.5C42.9213 33.3125 42.9438 32.9825 43.1088 32.75C43.2738 32.5175 43.3095 32.18 43.1088 32L42.1301 31.1919C41.8376 30.965 41.7063 30.9144 41.2863 31.25C41.0051 31.4769 40.8157 31.4469 40.6282 31.3081C40.4407 31.1713 40.467 31.1919 40.2626 31.0231C40.0095 30.8169 39.8163 30.7756 39.5501 31.0625L34.6751 37.0625C35.2376 37.4375 35.2376 38.1875 34.8626 38.75L27.7563 47.1875C27.0101 47.75 26.2601 48.125 25.5063 48.125C24.7526 48.125 24.1976 47.9375 23.637 47.375C22.3245 46.25 22.3245 44.5625 23.262 43.25L30.3682 34.8125C30.5557 34.625 30.9288 34.4375 31.3038 34.4375C31.4913 34.4375 31.8645 34.4375 32.052 34.625L36.177 29.75C36.9251 29 36.6457 28.0625 35.8957 27.3125L35.4645 26.9094C34.5326 25.9719 33.1788 25.625 31.6788 25.625H30.9326C30.7451 25.625 30.6438 25.4 30.7451 25.25L31.8682 23.9375C32.9913 22.625 34.6788 21.875 36.3663 21.875ZM36.3663 20C34.1163 20 31.8663 20.9375 30.5726 22.8125L29.4495 24.125C28.8888 24.6875 28.7013 25.625 29.0745 26.375C29.4495 27.125 30.1976 27.5 30.9457 27.5H31.8813C32.817 27.5 33.7526 27.875 34.3188 28.4375L34.6938 28.8125L31.3188 32.5625H31.1313C30.1963 32.5625 29.4463 32.9375 28.8813 33.6875L21.7751 42.125C20.0913 44.1875 20.277 47.1875 22.3376 48.875C23.2713 49.625 24.207 50 25.5251 50C27.0213 50 28.3376 49.4375 29.0876 48.3125L36.1938 39.875C36.7526 39.125 36.9401 38.1875 36.7526 37.25L40.3151 33.125C40.512 32.9019 40.8776 32.9131 40.8776 33.125C40.8776 33.6875 41.2526 34.4375 41.8151 34.8125L43.497 36.3125C44.0595 36.6875 44.6207 36.875 45.1807 36.875C45.9307 36.875 46.6807 36.5 47.052 35.9375L50.052 32.375C50.9895 31.4375 50.6707 29.9 49.677 29L47.9932 27.5C47.6182 27.125 47.057 26.9375 46.3095 26.9375H46.122C46.122 26.375 45.747 25.625 45.1863 25.25L41.2488 21.875C39.9382 20.5625 38.2488 20 36.3738 20H36.3663Z" fill="white"/>
</svg>
