<svg width="71" height="70" viewBox="0 0 71 70" fill="none" xmlns="http://www.w3.org/2000/svg">
<rect x="0.125" width="70" height="70" rx="35" fill="#00A4E4"/>
<path d="M28.375 21.5C27.4886 21.5 26.6108 21.6746 25.7919 22.0138C24.9729 22.353 24.2288 22.8502 23.602 23.477C22.9752 24.1038 22.478 24.8479 22.1388 25.6669C21.7996 26.4858 21.625 27.3636 21.625 28.25C21.625 29.1364 21.7996 30.0142 22.1388 30.8331C22.478 31.6521 22.9752 32.3962 23.602 33.023C24.2288 33.6498 24.9729 34.147 25.7919 34.4862C26.6108 34.8254 27.4886 35 28.375 35C30.1652 35 31.8821 34.2888 33.148 33.023C34.4138 31.7571 35.125 30.0402 35.125 28.25C35.125 26.4598 34.4138 24.7429 33.148 23.477C31.8821 22.2112 30.1652 21.5 28.375 21.5ZM23.875 28.25C23.875 27.6591 23.9914 27.0739 24.2175 26.5279C24.4437 25.982 24.7752 25.4859 25.193 25.068C25.6109 24.6502 26.107 24.3187 26.6529 24.0925C27.1989 23.8664 27.7841 23.75 28.375 23.75C28.9659 23.75 29.5511 23.8664 30.0971 24.0925C30.643 24.3187 31.1391 24.6502 31.557 25.068C31.9748 25.4859 32.3063 25.982 32.5325 26.5279C32.7586 27.0739 32.875 27.6591 32.875 28.25C32.875 29.4435 32.4009 30.5881 31.557 31.432C30.7131 32.2759 29.5685 32.75 28.375 32.75C27.1815 32.75 26.0369 32.2759 25.193 31.432C24.3491 30.5881 23.875 29.4435 23.875 28.25ZM44.125 24.5C42.7326 24.5 41.3973 25.0531 40.4127 26.0377C39.4281 27.0223 38.875 28.3576 38.875 29.75C38.875 31.1424 39.4281 32.4777 40.4127 33.4623C41.3973 34.4469 42.7326 35 44.125 35C45.5174 35 46.8527 34.4469 47.8373 33.4623C48.8219 32.4777 49.375 31.1424 49.375 29.75C49.375 28.3576 48.8219 27.0223 47.8373 26.0377C46.8527 25.0531 45.5174 24.5 44.125 24.5ZM41.125 29.75C41.125 28.9543 41.4411 28.1913 42.0037 27.6287C42.5663 27.0661 43.3294 26.75 44.125 26.75C44.9206 26.75 45.6837 27.0661 46.2463 27.6287C46.8089 28.1913 47.125 28.9543 47.125 29.75C47.125 30.5456 46.8089 31.3087 46.2463 31.8713C45.6837 32.4339 44.9206 32.75 44.125 32.75C43.3294 32.75 42.5663 32.4339 42.0037 31.8713C41.4411 31.3087 41.125 30.5456 41.125 29.75ZM17.125 41.375C17.125 40.4799 17.4806 39.6214 18.1135 38.9885C18.7464 38.3556 19.6049 38 20.5 38H35.626C34.846 38.6075 34.1965 39.374 33.724 40.25H20.5C20.2016 40.25 19.9155 40.3685 19.7045 40.5795C19.4935 40.7905 19.375 41.0766 19.375 41.375V42.1445L19.3885 42.2945C19.4035 42.4355 19.4335 42.647 19.4995 42.9065C19.6744 43.6003 19.9854 44.2524 20.4145 44.825C21.4255 46.1705 23.587 47.75 28.375 47.75C30.6895 47.75 32.3905 47.381 33.6445 46.8485C33.994 47.5385 34.4545 48.164 35.0005 48.7025C33.3805 49.4885 31.225 50 28.375 50C23.038 50 20.137 48.2045 18.616 46.175C18.0066 45.3627 17.565 44.4372 17.317 43.4525C17.2188 43.0604 17.1561 42.6603 17.1295 42.257L17.125 42.1715V41.375ZM40 40.25C39.1049 40.25 38.2465 40.6056 37.6135 41.2385C36.9806 41.8714 36.625 42.7299 36.625 43.625C36.625 44.5201 36.9806 45.3785 37.6135 46.0115C38.2465 46.6444 39.1049 47 40 47H40.75C41.0484 47 41.3345 47.1185 41.5455 47.3295C41.7565 47.5405 41.875 47.8266 41.875 48.125C41.875 48.4234 41.7565 48.7095 41.5455 48.9205C41.3345 49.1315 41.0484 49.25 40.75 49.25H40C38.5082 49.25 37.0774 48.6574 36.0225 47.6025C34.9676 46.5476 34.375 45.1168 34.375 43.625C34.375 42.1332 34.9676 40.7024 36.0225 39.6475C37.0774 38.5926 38.5082 38 40 38H40.75C41.0484 38 41.3345 38.1185 41.5455 38.3295C41.7565 38.5405 41.875 38.8266 41.875 39.125C41.875 39.4234 41.7565 39.7095 41.5455 39.9205C41.3345 40.1315 41.0484 40.25 40.75 40.25H40ZM38.875 43.625C38.875 43.3266 38.9935 43.0405 39.2045 42.8295C39.4155 42.6185 39.7016 42.5 40 42.5H48.25C48.5484 42.5 48.8345 42.6185 49.0455 42.8295C49.2565 43.0405 49.375 43.3266 49.375 43.625C49.375 43.9234 49.2565 44.2095 49.0455 44.4205C48.8345 44.6315 48.5484 44.75 48.25 44.75H40C39.7016 44.75 39.4155 44.6315 39.2045 44.4205C38.9935 44.2095 38.875 43.9234 38.875 43.625ZM48.25 47C49.1451 47 50.0036 46.6444 50.6365 46.0115C51.2694 45.3785 51.625 44.5201 51.625 43.625C51.625 42.7299 51.2694 41.8714 50.6365 41.2385C50.0036 40.6056 49.1451 40.25 48.25 40.25H47.5C47.2016 40.25 46.9155 40.1315 46.7045 39.9205C46.4935 39.7095 46.375 39.4234 46.375 39.125C46.375 38.8266 46.4935 38.5405 46.7045 38.3295C46.9155 38.1185 47.2016 38 47.5 38H48.25C49.7418 38 51.1726 38.5926 52.2275 39.6475C53.2824 40.7024 53.875 42.1332 53.875 43.625C53.875 45.1168 53.2824 46.5476 52.2275 47.6025C51.1726 48.6574 49.7418 49.25 48.25 49.25H47.5C47.2016 49.25 46.9155 49.1315 46.7045 48.9205C46.4935 48.7095 46.375 48.4234 46.375 48.125C46.375 47.8266 46.4935 47.5405 46.7045 47.3295C46.9155 47.1185 47.2016 47 47.5 47H48.25Z" fill="white"/>
</svg>
