<svg width="47" height="46" viewBox="0 0 47 46" fill="none" xmlns="http://www.w3.org/2000/svg">
<path d="M23.145 9.91479C16.6343 9.91479 11.3152 15.2339 11.3152 21.7446C11.3152 25.1488 12.8045 28.4254 15.3152 30.6382C17.1875 32.5105 17.0173 36.5105 16.9748 36.5531C16.9748 36.7659 17.0173 36.9361 17.1875 37.1063C17.3152 37.2339 17.528 37.319 17.6982 37.319H28.5492C28.762 37.319 28.9322 37.2339 29.0599 37.1063C29.1875 36.9786 29.2726 36.7659 29.2726 36.5531C29.2726 36.5105 29.0599 32.5105 30.9322 30.6382C30.9748 30.5956 31.0173 30.5531 31.0599 30.5105C33.528 28.2552 34.9748 25.0637 34.9748 21.7446C34.9748 15.2339 29.6556 9.91479 23.145 9.91479ZM29.9535 29.5318C29.9109 29.5744 29.8258 29.6595 29.8258 29.702C28.1663 31.4893 27.8684 34.4254 27.8258 35.8297H18.4216C18.379 34.4254 18.0811 31.3616 16.2939 29.5318C14.0386 27.5744 12.7194 24.7233 12.7194 21.702C12.7194 15.9573 17.3577 11.3191 23.1024 11.3191C28.8471 11.3191 33.4854 15.9573 33.4854 21.702C33.4854 24.7233 32.2088 27.5744 29.9535 29.5318Z" fill="#007F01"/>
<path d="M23.1023 12.9363C22.7193 12.9363 22.3789 13.2767 22.3789 13.6597C22.3789 14.0427 22.7193 14.3831 23.1023 14.3831C27.4002 14.3831 30.847 17.8724 30.847 22.1278C30.847 22.5107 31.1874 22.8512 31.5704 22.8512C31.9534 22.8512 32.2938 22.5107 32.2938 22.1278C32.3364 17.0639 28.2087 12.9363 23.1023 12.9363Z" fill="#007F01"/>
<path d="M27.8258 38.1277H18.379C17.4003 38.1277 16.5918 38.9362 16.5918 39.9149C16.5918 40.8936 17.4003 41.7022 18.379 41.7022H27.7833C28.8046 41.6596 29.6131 40.8936 29.6131 39.9149C29.6131 38.9362 28.8046 38.1277 27.8258 38.1277ZM27.8258 40.2128H18.379C18.2088 40.2128 18.0386 40.0851 18.0386 39.8724C18.0386 39.6596 18.1663 39.5319 18.379 39.5319H27.7833C27.9535 39.5319 28.1237 39.6596 28.1237 39.8724C28.1237 40.0851 27.9961 40.2128 27.8258 40.2128Z" fill="#007F01"/>
<path d="M26.4216 42.4255H19.7833C18.8046 42.4255 17.9961 43.234 17.9961 44.2128C17.9961 45.1915 18.8046 46 19.7833 46H26.4216C27.4003 46 28.2089 45.1915 28.2089 44.2128C28.2089 43.1915 27.4003 42.4255 26.4216 42.4255ZM26.4216 44.5106H19.7833C19.6131 44.5106 19.4429 44.383 19.4429 44.1702C19.4429 43.9575 19.5706 43.8298 19.7833 43.8298H26.4216C26.5918 43.8298 26.7621 43.9575 26.7621 44.1702C26.7621 44.383 26.5918 44.5106 26.4216 44.5106Z" fill="#007F01"/>
<path d="M23.1023 6.38298C23.5278 6.38298 23.8257 6.04255 23.8257 5.65957V0.723404C23.8257 0.340426 23.4853 0 23.1023 0C22.7193 0 22.3789 0.340426 22.3789 0.723404V5.65957C22.3789 6.04255 22.7193 6.38298 23.1023 6.38298Z" fill="#007F01"/>
<path d="M35.145 3.6596C34.8046 3.40428 34.3791 3.53194 34.1663 3.82981L31.4429 7.91492C31.1876 8.25534 31.2727 8.72343 31.6131 8.9362C31.7408 9.0213 31.8684 9.06385 31.9961 9.06385C32.2514 9.06385 32.4642 8.9362 32.5918 8.72343L35.3152 4.63832C35.5705 4.34045 35.4854 3.87237 35.145 3.6596Z" fill="#007F01"/>
<path d="M14.4641 8.89369C14.5918 8.89369 14.7194 8.85114 14.8471 8.76603C15.1875 8.55327 15.2726 8.08518 15.0599 7.74475L12.4216 3.61709C12.2088 3.27667 11.7407 3.19156 11.4003 3.40433C11.0599 3.61709 10.9748 4.08518 11.1875 4.4256L13.8258 8.55327C13.996 8.80858 14.2088 8.89369 14.4641 8.89369Z" fill="#007F01"/>
<path d="M9.31513 13.4043L5.01726 11.0638C4.67683 10.8936 4.20874 11.0213 4.03853 11.3617C3.82577 11.7021 3.95343 12.1702 4.3364 12.3404L8.63428 14.6809C8.76194 14.7234 8.84704 14.766 8.9747 14.766C9.23002 14.766 9.48534 14.6383 9.613 14.383C9.78321 14.0426 9.65555 13.5745 9.31513 13.4043Z" fill="#007F01"/>
<path d="M42.2087 11.3617C42.0385 11.0213 41.5704 10.8936 41.23 11.0638L36.8895 13.4043C36.5491 13.5745 36.4215 14.0426 36.5917 14.383C36.7193 14.6383 36.9746 14.766 37.23 14.766C37.3576 14.766 37.4853 14.7234 37.5704 14.6809L41.9108 12.3404C42.2512 12.1702 42.3789 11.7021 42.2087 11.3617Z" fill="#007F01"/>
</svg>
