<svg width="58" height="61" viewBox="0 0 58 61" fill="none" xmlns="http://www.w3.org/2000/svg">
<path d="M25.6175 35.416C26.7308 35.6387 27.9554 35.75 29.18 35.75C30.2933 35.75 31.5179 35.6387 32.7425 35.416V52.8945L30.182 56.5684C29.7367 57.3477 28.512 57.3477 28.0667 56.5684L25.6175 52.8945V35.416ZM29.18 0.125C37.9749 0.125 45.2113 7.36133 45.2113 16.1562C45.2113 25.0625 37.9749 32.1875 29.18 32.1875C20.2738 32.1875 13.1488 25.0625 13.1488 16.1562C13.1488 7.36133 20.2738 0.125 29.18 0.125ZM29.18 8.58594C29.848 8.58594 30.516 8.0293 30.516 7.25C30.516 6.58203 29.848 5.91406 29.18 5.91406C23.5023 5.91406 18.9378 10.5898 18.9378 16.1562C18.9378 16.9355 19.4945 17.4922 20.2738 17.4922C20.9417 17.4922 21.6097 16.9355 21.6097 16.1562C21.6097 12.0371 24.9495 8.58594 29.18 8.58594Z" fill="#1DAAE2"/>
</svg>
