<svg width="73" height="73" viewBox="0 0 73 73" fill="none" xmlns="http://www.w3.org/2000/svg">
<path d="M33.6129 72.3126C30.0385 72.3126 26.8765 70.5713 24.127 67.0885C21.3775 63.6058 19.3382 59.2065 18.0093 53.8908C16.6804 48.575 16.0159 42.9843 16.0159 37.1186C16.0159 33.9109 16.3138 30.4281 16.9095 26.6704C17.5052 22.9127 18.4446 19.1092 19.7278 15.2599C21.0109 11.4105 22.8668 8.22568 25.2955 5.70528C27.7243 3.18488 30.4967 1.92467 33.6129 1.92467C35.6292 1.92467 37.5768 2.58914 39.4556 3.91808C41.3345 5.24702 43.0529 7.14878 44.611 9.62336C46.1691 12.0979 47.4522 15.0308 48.4603 18.4218C48.7353 19.3384 48.4145 19.9341 47.498 20.209C46.5815 20.484 45.9858 20.1632 45.7108 19.2467C44.336 14.8475 42.5718 11.3418 40.418 8.72976C38.2642 6.11771 35.9958 4.81168 33.6129 4.81168C30.4967 4.81168 27.7701 6.6447 25.433 10.3107C23.0959 13.9768 21.4233 18.1927 20.4151 22.9586C19.407 27.7244 18.9029 32.4445 18.9029 37.1186C18.9029 42.801 19.5674 48.1397 20.8963 53.1347C22.2252 58.1296 24.0124 62.0935 26.2579 65.0264C28.5033 67.9592 30.955 69.4256 33.6129 69.4256C35.0793 69.4256 36.5686 68.8757 38.0809 67.7759C39.5931 66.6761 40.9679 65.0951 42.2052 63.033C43.4424 60.9708 44.5193 58.565 45.4359 55.8154C45.6192 55.0822 46.0774 54.7156 46.8106 54.7156C47.2689 54.7156 47.6355 54.8531 47.9104 55.1281C48.1854 55.403 48.3229 55.7696 48.3229 56.2279C48.3229 56.4112 48.277 56.6403 48.1854 56.9153C46.5357 61.6811 44.4277 65.4388 41.8615 68.1883C39.2952 70.9379 36.5457 72.3126 33.6129 72.3126ZM46.8106 22.4087C46.3524 22.4087 45.9858 22.2712 45.7108 21.9962L39.7993 16.2222C39.1578 15.489 39.1807 14.7787 39.8681 14.0913C40.5554 13.404 41.2657 13.381 41.9989 14.0226L46.5357 18.6968L49.9726 14.2976C50.6141 13.4727 51.3244 13.3581 52.1035 13.9539C52.8825 14.5496 52.9512 15.2141 52.3097 15.9473L47.9104 21.8588C47.6355 22.2254 47.2689 22.4087 46.8106 22.4087ZM36.4999 58.4275C30.6342 58.4275 25.0435 57.7401 19.7278 56.3654C14.412 54.9906 10.0128 52.9284 6.53001 50.1789C3.04728 47.4294 1.30591 44.3132 1.30591 40.8305C1.30591 37.806 2.68067 34.9878 5.4302 32.3757C8.17973 29.7637 12.0291 27.6786 16.9782 26.1205C17.8947 25.8456 18.5134 26.1664 18.8342 27.0829C19.1549 27.9994 18.8112 28.5951 17.8031 28.8701C13.5871 30.2448 10.2648 31.9862 7.83604 34.0942C5.40729 36.2021 4.19291 38.4476 4.19291 40.8305C4.19291 43.58 5.81972 46.1004 9.07333 48.3917C12.3269 50.683 16.4054 52.4244 21.3087 53.6158C26.2121 54.8073 31.2758 55.403 36.4999 55.403C39.1578 55.403 41.9302 55.2197 44.8172 54.8531C47.7042 54.4865 50.5912 53.9137 53.4782 53.1347C56.3652 52.3556 58.9315 51.4162 61.1769 50.3164C63.4224 49.2166 65.2554 47.8418 66.676 46.1921C68.0966 44.5424 68.8068 42.7552 68.8068 40.8305C68.8068 38.3559 67.455 36.0188 64.7513 33.8192C62.0476 31.6196 58.4045 29.8324 53.8219 28.4576C52.9054 28.1827 52.5846 27.5869 52.8596 26.6704C53.1345 25.7539 53.7303 25.4332 54.6468 25.7081C59.9625 27.2662 64.1326 29.3741 67.1571 32.032C70.1816 34.6899 71.6939 37.6227 71.6939 40.8305C71.6939 43.9466 70.4337 46.6962 67.9133 49.0791C65.3929 51.462 62.208 53.295 58.3586 54.5782C54.5093 55.8613 50.7058 56.8236 46.9481 57.4652C43.1904 58.1067 39.7077 58.4275 36.4999 58.4275ZM59.5959 34.5066C59.2293 34.7815 58.8627 34.919 58.4961 34.919C58.1295 34.919 57.7629 34.7815 57.3963 34.5066L51.6223 28.5951C51.2557 28.3202 51.0953 27.9536 51.1411 27.4953C51.187 27.037 51.3932 26.6704 51.7598 26.3955L57.6713 21.9962C58.4045 21.4463 59.0689 21.5609 59.6647 22.3399C60.2604 23.119 60.1458 23.7834 59.321 24.3333L54.9217 27.7702L59.5959 32.4445C60.2375 33.086 60.2375 33.7734 59.5959 34.5066ZM44.7485 45.3672C44.7485 45.3672 44.1757 45.9401 43.03 47.0857C41.8844 48.2313 39.7077 48.8041 36.4999 48.8041C33.2921 48.8041 30.5426 47.6585 28.2513 45.3672C25.96 43.076 24.8144 40.3264 24.8144 37.1186C24.8144 33.9109 25.96 31.1613 28.2513 28.8701C30.5426 26.5788 33.2921 25.4332 36.4999 25.4332C39.7077 25.4332 42.4572 26.5788 44.7485 28.8701C47.0397 31.1613 48.1854 33.9109 48.1854 37.1186C48.1854 40.3264 47.0397 43.076 44.7485 45.3672ZM42.6863 30.9322C42.6863 30.9322 42.251 30.4969 41.3803 29.6262C40.5096 28.7555 38.8828 28.3202 36.4999 28.3202C34.117 28.3202 32.0548 29.1908 30.3134 30.9322C28.5721 32.6736 27.7014 34.7357 27.7014 37.1186C27.7014 39.5016 28.5721 41.5637 30.3134 43.3051C32.0548 45.0465 34.117 45.9171 36.4999 45.9171C38.8828 45.9171 40.945 45.0465 42.6863 43.3051C44.4277 41.5637 45.2984 39.5016 45.2984 37.1186C45.2984 34.7357 44.4277 32.6736 42.6863 30.9322ZM38.562 39.1808C38.562 39.1808 38.4246 39.3183 38.1496 39.5932C37.8746 39.8682 37.3247 40.0057 36.4999 40.0057C35.675 40.0057 34.9876 39.7307 34.4377 39.1808C33.8878 38.6309 33.6129 37.9435 33.6129 37.1186C33.6129 36.2938 33.8878 35.6064 34.4377 35.0565C34.9876 34.5066 35.675 34.2316 36.4999 34.2316C37.3247 34.2316 38.0121 34.5066 38.562 35.0565C39.1119 35.6064 39.3869 36.2938 39.3869 37.1186C39.3869 37.9435 39.1119 38.6309 38.562 39.1808Z" fill="white"/>
</svg>
