<svg width="73" height="73" viewBox="0 0 73 73" fill="none" xmlns="http://www.w3.org/2000/svg">
<path d="M65.4975 16.7722C65.4975 16.8638 65.4975 16.9555 65.4975 17.0471C65.4975 17.3221 65.4058 17.5512 65.2225 17.7345L58.4862 24.4709C59.4944 26.3039 60.3879 28.5951 61.167 31.3447C61.946 34.0942 62.3355 36.523 62.3355 38.6309C62.3355 46.238 59.6547 52.7223 54.2932 58.0838C48.9316 63.4454 42.4702 66.1262 34.909 66.1262C27.3478 66.1262 20.8864 63.4454 15.5248 58.0838C10.1632 52.7223 7.48242 46.2609 7.48242 38.6997C7.48242 31.1385 10.1632 24.6771 15.5248 19.3155C20.8864 13.9539 27.3707 11.2731 34.9777 11.2731C37.0857 11.2731 39.5144 11.6626 42.264 12.4417C45.0135 13.2207 47.3048 14.1143 49.1378 15.1225L55.8741 8.38611C56.0574 8.2028 56.2866 8.11116 56.5615 8.11116C57.1114 8.11116 57.4322 8.34028 57.5239 8.79854L58.8986 14.71L64.8101 16.0848C65.1767 16.1764 65.4058 16.4056 65.4975 16.7722ZM60.4109 38.6309C60.4109 36.7979 60.0901 34.6212 59.4485 32.1008C58.807 29.5804 57.9821 27.4953 56.9739 25.8456L53.9495 29.0076C53.8578 29.0076 53.812 29.0534 53.812 29.1451C55.3701 32.1695 56.1491 35.3315 56.1491 38.6309C56.1491 44.4966 54.064 49.5145 49.8939 53.6846C45.7238 57.8547 40.7288 59.9398 34.909 59.9398C29.0891 59.9398 24.0942 57.8547 19.924 53.6846C15.7539 49.5145 13.6689 44.5195 13.6689 38.6997C13.6689 32.8798 15.7539 27.8849 19.924 23.7147C24.0942 19.5446 29.0662 17.4596 34.8402 17.4596C38.2313 17.4596 41.4391 18.2386 44.4636 19.7967C44.5552 19.7967 44.6011 19.7508 44.6011 19.6592L47.763 16.6347C46.1133 15.6265 44.0282 14.8017 41.5078 14.1601C38.9874 13.5186 36.8107 13.1978 34.9777 13.1978C27.9206 13.1978 21.8945 15.6724 16.8996 20.6215C11.9046 25.5707 9.40709 31.5738 9.40709 38.6309C9.40709 45.6881 11.9046 51.7141 16.8996 56.7091C21.8945 61.7041 27.9206 64.2016 34.9777 64.2016C42.0348 64.2016 48.038 61.7041 52.9871 56.7091C57.9363 51.7141 60.4109 45.6881 60.4109 38.6309ZM51.4749 28.8701L47.0756 27.9078L46.1133 28.8701C47.1215 30.0616 47.9922 31.6196 48.7254 33.5443C49.4586 35.469 49.8252 37.2103 49.8252 38.7684C49.8252 42.801 48.3588 46.2838 45.4259 49.2166C42.4931 52.1494 38.9874 53.6159 34.909 53.6159C30.8305 53.6159 27.3249 52.1494 24.392 49.2166C21.4592 46.2838 19.9928 42.7781 19.9928 38.6997C19.9928 34.6212 21.4592 31.1156 24.392 28.1827C27.3249 25.2499 30.8076 23.7835 34.8402 23.7835C36.3983 23.7835 38.1397 24.1501 40.0643 24.8833C41.989 25.6165 43.5471 26.4872 44.7385 27.4953L45.7009 26.533L44.6011 22.1338C41.6682 20.3007 38.4605 19.3842 34.9777 19.3842C29.662 19.3842 25.1252 21.2631 21.3675 25.0208C17.6099 28.7785 15.731 33.3152 15.731 38.6309C15.731 43.9467 17.6099 48.4834 21.3675 52.2411C25.1252 55.9988 29.662 57.8776 34.9777 57.8776C40.2935 57.8776 44.8302 55.9988 48.5879 52.2411C52.3456 48.4834 54.2244 43.9467 54.2244 38.6309C54.2244 35.1482 53.3079 31.8946 51.4749 28.8701ZM39.102 38.6309C39.102 37.8977 38.8729 37.2103 38.4146 36.5688L35.6651 39.3183C35.4818 39.5016 35.2527 39.5933 34.9777 39.5933C34.3362 39.5933 34.0154 39.2725 34.0154 38.6309C34.0154 38.356 34.107 38.1268 34.2903 37.9435L37.0399 35.194C36.3983 34.7358 35.7109 34.5066 34.9777 34.5066C33.7863 34.5066 32.7781 34.9191 31.9532 35.7439C31.1284 36.5688 30.7159 37.554 30.7159 38.6997C30.7159 39.8453 31.1284 40.8306 31.9532 41.6554C32.7781 42.4803 33.7633 42.8927 34.909 42.8927C36.0546 42.8927 37.0399 42.4803 37.8647 41.6554C38.6896 40.8306 39.102 39.8224 39.102 38.6309ZM38.4146 33.8193L43.3638 28.8701C42.3556 28.0452 41.0267 27.312 39.377 26.6705C37.7272 26.0289 36.215 25.7081 34.8402 25.7081C31.3575 25.7081 28.333 26.9913 25.7668 29.5575C23.2006 32.1237 21.9174 35.1711 21.9174 38.6997C21.9174 42.2282 23.2006 45.2756 25.7668 47.8419C28.333 50.4081 31.3804 51.6912 34.909 51.6912C38.4375 51.6912 41.4849 50.4081 44.0512 47.8419C46.6174 45.2756 47.9005 42.2053 47.9005 38.6309C47.9005 37.3478 47.5797 35.8814 46.9382 34.2317C46.2966 32.582 45.5634 31.253 44.7385 30.2449L39.7894 35.194C40.6143 36.2022 41.0267 37.3936 41.0267 38.7684C41.0267 40.4181 40.4309 41.8387 39.2395 43.0302C38.048 44.2216 36.6045 44.8174 34.909 44.8174C33.2134 44.8174 31.7699 44.2216 30.5785 43.0302C29.387 41.8387 28.7913 40.3952 28.7913 38.6997C28.7913 37.0041 29.387 35.5606 30.5785 34.3692C31.7699 33.1777 33.1905 32.582 34.8402 32.582C36.215 32.582 37.4065 32.9944 38.4146 33.8193ZM56.5615 23.646L62.6105 17.597L57.7988 16.4972C57.4322 16.4056 57.2031 16.1764 57.1114 15.8098L56.0116 10.9982L46.3883 20.6215L47.4881 26.1206L52.2997 27.0829L52.4372 27.2204H52.9871L56.5615 23.646Z" fill="white"/>
</svg>
