<svg width="74" height="60" viewBox="0 0 74 60" fill="none" xmlns="http://www.w3.org/2000/svg">
<path d="M55.8645 23C57.3372 23 58.5833 24.2461 58.5833 25.7188V31.1562C58.5833 32.7422 57.3372 33.875 55.8645 33.875H54.9583V41.125C54.9583 43.1641 53.259 44.75 51.3333 44.75H49.5208C49.5208 48.8281 46.2356 52 42.2708 52H26.7512L15.0833 58.7969C13.2708 59.8164 11.1184 59.25 10.0989 57.4375L1.03638 41.8047C0.0168457 40.1055 0.583252 37.8398 2.39575 36.8203L11.4583 31.6094V26.2852C11.4583 23.6797 12.7043 21.3008 14.97 20.0547L22.3333 15.6367V29.3438C22.3333 33.875 25.9583 37.5 30.4895 37.5C34.9075 37.5 38.6458 33.875 38.6458 29.3438V23H55.8645ZM72.5168 18.8086C73.5364 20.5078 72.97 22.7734 71.2708 23.793L62.2083 29.0039V25.7188C62.2083 22.3203 59.2629 19.375 55.8645 19.375H35.0208V29.3438C35.0208 31.9492 32.9817 33.875 30.4895 33.875C27.884 33.875 25.9583 31.9492 25.9583 29.3438V15.0703C25.9583 13.8242 26.5247 12.6914 27.6575 12.0117L31.3958 9.63281C32.5286 8.95312 33.8879 8.5 35.2473 8.5H46.802L58.5833 1.81641C60.2825 0.796875 62.4348 1.36328 63.4543 3.0625L72.5168 18.8086Z" fill="#1DAAE2"/>
</svg>
