<svg width="10" height="12" viewBox="0 0 10 12" fill="none" xmlns="http://www.w3.org/2000/svg">
<g clip-path="url(#clip0_108_1666)">
<path d="M9.43431 8.30356C9.43431 8.4241 9.41199 8.58146 9.36734 8.77566C9.3227 8.96986 9.27583 9.12276 9.22672 9.23437C9.13297 9.45758 8.86065 9.69419 8.40976 9.94419C7.99011 10.1719 7.57493 10.2857 7.16422 10.2857C7.04368 10.2857 6.92538 10.2779 6.80931 10.2623C6.69324 10.2466 6.56489 10.2187 6.42426 10.1786C6.28364 10.1384 6.17873 10.106 6.10953 10.0815C6.04034 10.0569 5.91645 10.0112 5.73788 9.94419C5.55931 9.87722 5.44993 9.83704 5.40976 9.82365C4.97226 9.6674 4.58163 9.48213 4.23788 9.26785C3.67092 8.91517 3.08163 8.43303 2.47002 7.82142C1.85842 7.20981 1.37627 6.62053 1.02359 6.05356C0.809309 5.70981 0.624041 5.31919 0.467791 4.88169C0.454398 4.84151 0.414219 4.73213 0.347255 4.55356C0.280291 4.37499 0.234532 4.25111 0.209978 4.18191C0.185425 4.11271 0.153059 4.0078 0.11288 3.86718C0.0727016 3.72655 0.0447998 3.59821 0.0291748 3.48213C0.0135498 3.36606 0.0057373 3.24776 0.0057373 3.12722C0.0057373 2.71651 0.119577 2.30133 0.347255 1.88169C0.597255 1.43079 0.833862 1.15847 1.05708 1.06472C1.16868 1.01562 1.32159 0.968741 1.51578 0.924098C1.70998 0.879456 1.86734 0.857134 1.98788 0.857134C2.05038 0.857134 2.09726 0.863831 2.12851 0.877223C2.20886 0.904009 2.32717 1.07365 2.48342 1.38615C2.53252 1.47097 2.59949 1.59151 2.68431 1.74776C2.76913 1.90401 2.84726 2.04575 2.91868 2.17298C2.99011 2.30021 3.05931 2.41963 3.12627 2.53124C3.13967 2.5491 3.17873 2.6049 3.24346 2.69865C3.30819 2.7924 3.35618 2.87164 3.38743 2.93638C3.41868 3.00111 3.43431 3.06472 3.43431 3.12722C3.43431 3.21651 3.37069 3.32812 3.24346 3.46204C3.11623 3.59597 2.97784 3.71874 2.82828 3.83035C2.67873 3.94196 2.54034 4.06026 2.4131 4.18526C2.28587 4.31026 2.22226 4.41294 2.22226 4.49329C2.22226 4.53347 2.23342 4.5837 2.25574 4.64396C2.27806 4.70423 2.29703 4.74999 2.31266 4.78124C2.32828 4.81249 2.35953 4.86606 2.40641 4.94196C2.45328 5.01785 2.47895 5.06026 2.48342 5.06919C2.8227 5.68079 3.21109 6.20535 3.64859 6.64285C4.08609 7.08035 4.61065 7.46874 5.22226 7.80803C5.23118 7.81249 5.27359 7.83816 5.34949 7.88504C5.42538 7.93191 5.47895 7.96316 5.5102 7.97879C5.54145 7.99441 5.58721 8.01338 5.64748 8.03571C5.70775 8.05803 5.75797 8.06919 5.79815 8.06919C5.87851 8.06919 5.98118 8.00557 6.10618 7.87834C6.23118 7.75111 6.34949 7.61271 6.46109 7.46316C6.5727 7.31361 6.69547 7.17521 6.8294 7.04798C6.96333 6.92075 7.07493 6.85713 7.16422 6.85713C7.22672 6.85713 7.29034 6.87276 7.35507 6.90401C7.4198 6.93526 7.49904 6.98325 7.59279 7.04798C7.68654 7.11271 7.74234 7.15178 7.7602 7.16517C7.87181 7.23213 7.99123 7.30133 8.11846 7.37276C8.24569 7.44419 8.38743 7.52231 8.54368 7.60713C8.69993 7.69196 8.82047 7.75892 8.90529 7.80803C9.21779 7.96428 9.38743 8.08258 9.41422 8.16294C9.42761 8.19419 9.43431 8.24106 9.43431 8.30356Z" fill="white"/>
</g>
<defs>
<clipPath id="clip0_108_1666">
<rect width="9.44" height="12" fill="white" transform="matrix(1 0 0 -1 0 12)"/>
</clipPath>
</defs>
</svg>
