<svg width="80" height="80" viewBox="0 0 80 80" fill="none" xmlns="http://www.w3.org/2000/svg">
<rect width="80" height="80" rx="40" fill="white"/>
<rect width="80" height="80" rx="40" fill="white"/>
<path d="M48.2432 39.0508L32.3633 28.0898C32.2884 28.0299 32.1986 27.9963 32.0938 27.9888C31.9889 27.9813 31.8916 28.0075 31.8018 28.0674C31.7119 28.1123 31.6408 28.1759 31.5884 28.2583C31.536 28.3407 31.5098 28.4342 31.5098 28.5391V50.4385C31.5098 50.5433 31.536 50.6406 31.5884 50.7305C31.6408 50.8203 31.7119 50.8877 31.8018 50.9326C31.8467 50.9476 31.8916 50.9626 31.9365 50.9775C31.9814 50.9925 32.0189 51 32.0488 51C32.1087 51 32.1649 50.9925 32.2173 50.9775C32.2697 50.9626 32.3184 50.9326 32.3633 50.8877L48.2432 39.9492C48.318 39.8893 48.3779 39.8219 48.4229 39.7471C48.4678 39.6722 48.4902 39.5898 48.4902 39.5C48.4902 39.4102 48.4678 39.3241 48.4229 39.2417C48.3779 39.1593 48.318 39.0957 48.2432 39.0508Z" fill="#00A4E4"/>
</svg>
