<svg width="26" height="26" viewBox="0 0 26 26" fill="none" xmlns="http://www.w3.org/2000/svg">
<path d="M24.6582 22.2559C25.0977 22.7441 25.0977 23.4766 24.6094 23.916L23.2422 25.2832C22.8027 25.7715 22.0703 25.7715 21.582 25.2832L16.748 20.4492C16.5039 20.2051 16.4062 19.9121 16.4062 19.6191V18.7891C14.6484 20.1562 12.5 20.9375 10.1562 20.9375C4.54102 20.9375 0 16.3965 0 10.7812C0 5.21484 4.54102 0.625 10.1562 0.625C15.7227 0.625 20.3125 5.21484 20.3125 10.7812C20.3125 13.1738 19.4824 15.3223 18.1641 17.0312H18.9453C19.2383 17.0312 19.5312 17.1777 19.7754 17.373L24.6582 22.2559ZM10.1562 17.0312C13.5742 17.0312 16.4062 14.248 16.4062 10.7812C16.4062 7.36328 13.5742 4.53125 10.1562 4.53125C6.68945 4.53125 3.90625 7.36328 3.90625 10.7812C3.90625 14.248 6.68945 17.0312 10.1562 17.0312Z" fill="black"/>
</svg>
