<svg width="16" height="17" viewBox="0 0 16 17" fill="none" xmlns="http://www.w3.org/2000/svg">
<path d="M2.66665 15.3945C2.66665 14.4256 2.91109 13.5279 3.39998 12.7012C3.87109 11.9012 4.50665 11.2656 5.30665 10.7945C6.13332 10.3056 7.03109 10.0612 7.99998 10.0612C8.96887 10.0612 9.86665 10.3056 10.6933 10.7945C11.4933 11.2656 12.1289 11.9012 12.6 12.7012C13.0889 13.5279 13.3333 14.4256 13.3333 15.3945H12C12 14.6745 11.8178 14.0034 11.4533 13.3812C11.0978 12.7768 10.6178 12.2968 10.0133 11.9412C9.39109 11.5768 8.71998 11.3945 7.99998 11.3945C7.27998 11.3945 6.60887 11.5768 5.98665 11.9412C5.3822 12.2968 4.9022 12.7768 4.54665 13.3812C4.1822 14.0034 3.99998 14.6745 3.99998 15.3945H2.66665ZM7.99998 9.39453C7.27109 9.39453 6.59998 9.21231 5.98665 8.84786C5.3822 8.49231 4.9022 8.01231 4.54665 7.40786C4.1822 6.79453 3.99998 6.12342 3.99998 5.39453C3.99998 4.66564 4.1822 3.99453 4.54665 3.3812C4.9022 2.77675 5.3822 2.29675 5.98665 1.9412C6.59998 1.57675 7.27109 1.39453 7.99998 1.39453C8.72887 1.39453 9.39998 1.57675 10.0133 1.9412C10.6178 2.29675 11.0978 2.77675 11.4533 3.3812C11.8178 3.99453 12 4.66564 12 5.39453C12 6.12342 11.8178 6.79453 11.4533 7.40786C11.0978 8.01231 10.6178 8.49231 10.0133 8.84786C9.39998 9.21231 8.72887 9.39453 7.99998 9.39453ZM7.99998 8.0612C8.47998 8.0612 8.92443 7.9412 9.33332 7.7012C9.7422 7.4612 10.0666 7.13675 10.3066 6.72786C10.5466 6.31898 10.6666 5.87453 10.6666 5.39453C10.6666 4.91453 10.5466 4.47009 10.3066 4.0612C10.0666 3.65231 9.7422 3.32786 9.33332 3.08786C8.92443 2.84786 8.47998 2.72786 7.99998 2.72786C7.51998 2.72786 7.07554 2.84786 6.66665 3.08786C6.25776 3.32786 5.93332 3.65231 5.69332 4.0612C5.45332 4.47009 5.33332 4.91453 5.33332 5.39453C5.33332 5.87453 5.45332 6.31898 5.69332 6.72786C5.93332 7.13675 6.25776 7.4612 6.66665 7.7012C7.07554 7.9412 7.51998 8.0612 7.99998 8.0612Z" fill="#666666"/>
</svg>
