<svg width="47" height="46" viewBox="0 0 47 46" fill="none" xmlns="http://www.w3.org/2000/svg">
<path d="M28.0044 8.09977C28.0044 8.09977 28.3437 8.43906 29.0222 9.11766C29.7008 9.79625 30.0401 11.0885 30.0401 12.9943C30.0401 14.9001 29.3615 16.5317 28.0044 17.8888C26.6472 19.246 25.0157 19.9246 23.1098 19.9246C21.204 19.9246 19.5725 19.246 18.2153 17.8888C16.8581 16.5317 16.1795 14.9001 16.1795 12.9943C16.1795 11.0885 16.8581 9.45695 18.2153 8.09977C19.5725 6.74258 21.204 6.06399 23.1098 6.06399C25.0157 6.06399 26.6472 6.74258 28.0044 8.09977ZM19.2115 9.096C19.2115 9.096 18.9372 9.37033 18.3885 9.91898C17.8399 10.4676 17.5656 11.4927 17.5656 12.9943C17.5656 14.4959 18.1142 15.7953 19.2115 16.8926C20.3088 17.9899 21.6082 18.5386 23.1098 18.5386C24.6114 18.5386 25.9108 17.9899 27.0081 16.8926C28.1054 15.7953 28.6541 14.4959 28.6541 12.9943C28.6541 11.4927 28.1054 10.1933 27.0081 9.096C25.9108 7.9987 24.6114 7.45005 23.1098 7.45005C21.6082 7.45005 20.3088 7.9987 19.2115 9.096ZM35.5844 26.3352C36.3352 26.4507 37.0282 26.7394 37.6635 27.2015C38.2988 27.6635 38.8041 28.241 39.1795 28.934C39.5549 29.6271 39.7426 30.3779 39.7426 31.1864V44.1807C39.7426 44.6428 39.5116 44.8738 39.0496 44.8738H7.17008C6.70806 44.8738 6.47705 44.6428 6.47705 44.1807V31.1864C6.47705 29.9736 6.88132 28.9052 7.68986 27.9811C8.49839 27.0571 9.48019 26.5084 10.6352 26.3352L16.7859 25.4689L20.3377 24.8625V23.3898V22.4369L18.5185 21.4839L17.7388 22.2636C17.3923 22.6101 17.0458 22.6101 16.6993 22.2636L13.8405 19.4049C13.494 19.0583 13.494 18.7118 13.8405 18.3653L14.6202 17.5856L13.6673 15.7664H12.7143C12.2523 15.7664 12.0213 15.5354 12.0213 15.0734V10.9152C12.0213 10.4532 12.2523 10.2222 12.7143 10.2222H13.6673L14.6202 8.40297L13.8405 7.62331C13.494 7.27679 13.494 6.93027 13.8405 6.58376L16.6993 3.725C17.0458 3.37849 17.3923 3.37849 17.7388 3.725L18.5185 4.50467L20.3377 3.55175V2.59883C20.3377 2.1368 20.5687 1.90579 21.0307 1.90579H25.1889C25.6509 1.90579 25.8819 2.1368 25.8819 2.59883V3.55175L27.7012 4.50467L28.4808 3.725C28.8273 3.37849 29.1738 3.37849 29.5204 3.725L32.3791 6.58376C32.7256 6.93027 32.7256 7.27679 32.3791 7.62331L31.5995 8.40297L32.5524 10.2222H33.5053C33.9673 10.2222 34.1983 10.4532 34.1983 10.9152V15.0734C34.1983 15.5354 33.9673 15.7664 33.5053 15.7664H32.5524L31.5995 17.5856L32.3791 18.3653C32.7256 18.7118 32.7256 19.0583 32.3791 19.4049L29.5204 22.2636C29.1738 22.6101 28.8273 22.6101 28.4808 22.2636L27.7012 21.4839L25.8819 22.4369V23.3898V24.8625L29.4337 25.4689L35.5844 26.3352ZM25.5354 35.6045L26.4883 31.8794L25.1889 30.6666L25.5354 35.6045ZM24.4959 39.8493L23.9761 32.2259C23.6873 32.3414 23.3986 32.3992 23.1098 32.3992C22.8211 32.3992 22.5323 32.3414 22.2435 32.2259L21.7238 39.8493L23.1098 42.6214L24.4959 39.8493ZM19.7313 31.8794L20.6842 35.6045L21.0307 30.6666L19.7313 31.8794ZM21.7238 24.0828V25.209L23.1098 26.5951L24.4959 25.209V24.0828H21.7238ZM22.4168 29.1939V30.3201C22.4168 30.7821 22.6478 31.0131 23.1098 31.0131C23.5718 31.0131 23.8029 30.7821 23.8029 30.3201V29.1939L23.1098 28.5009L22.4168 29.1939ZM27.0081 30.4934L28.3942 26.6817L25.4488 26.2485L24.0627 27.548L27.0081 30.4934ZM18.6917 20.0113L21.3772 21.3973C21.6082 21.5128 21.7238 21.715 21.7238 22.0037V22.6968H24.4959V22.0037C24.4959 21.715 24.6114 21.5128 24.8424 21.3973L27.5279 20.0113C27.8167 19.8958 28.0765 19.9535 28.3076 20.1845L29.0006 20.8775L30.9931 18.8851L30.3 18.192C30.069 17.961 30.0113 17.7011 30.1268 17.4124L31.5128 14.7269C31.6283 14.4959 31.8305 14.3804 32.1192 14.3804H32.8123V11.6082H32.1192C31.8305 11.6082 31.6283 11.4927 31.5128 11.2617L30.1268 8.57623C30.0113 8.28746 30.069 8.02758 30.3 7.79657L30.9931 7.10353L29.0006 5.11106L28.3076 5.8041C28.0765 6.03511 27.8167 6.09286 27.5279 5.97736L24.8424 4.59129C24.6114 4.47579 24.4959 4.27365 24.4959 3.98489V3.29186H21.7238V3.98489C21.7238 4.27365 21.6082 4.47579 21.3772 4.59129L18.6917 5.97736C18.403 6.09286 18.1431 6.03511 17.9121 5.8041L17.219 5.11106L15.2266 7.10353L15.9196 7.79657C16.1506 8.02758 16.2084 8.28746 16.0929 8.57623L14.7068 11.2617C14.5913 11.4927 14.3892 11.6082 14.1004 11.6082H13.4074V14.3804H14.1004C14.3892 14.3804 14.5913 14.4959 14.7068 14.7269L16.0929 17.4124C16.2084 17.7011 16.1506 17.961 15.9196 18.192L15.2266 18.8851L17.219 20.8775L17.9121 20.1845C18.1431 19.9535 18.403 19.8958 18.6917 20.0113ZM20.7708 26.2485L17.8254 26.6817L19.2115 30.4934L22.1569 27.548L20.7708 26.2485ZM7.86311 31.1864V43.4877H12.0213V33.0922H13.4074V43.4877H21.9836L20.4243 40.3691C20.4243 40.3113 20.3954 40.2536 20.3377 40.1958L18.2586 31.8794L16.4394 26.9416L10.8085 27.7212C9.99996 27.8367 9.30693 28.2266 8.7294 28.8907C8.15188 29.5549 7.86311 30.3201 7.86311 31.1864ZM38.3565 43.4877V31.1864C38.3565 30.3201 38.0678 29.5549 37.4902 28.8907C36.9127 28.2266 36.2197 27.8367 35.4111 27.7212L29.7803 26.9416L27.961 31.8794L25.8819 40.1958C25.8242 40.2536 25.7953 40.3113 25.7953 40.3691L24.236 43.4877H32.1192V33.0922H33.5053V43.4877H38.3565Z" fill="#007F01"/>
</svg>
