<svg width="47" height="46" viewBox="0 0 47 46" fill="none" xmlns="http://www.w3.org/2000/svg">
<path d="M37.6755 17.1525C37.6178 17.0948 37.5889 17.037 37.5889 16.9793C37.5889 16.575 37.791 16.3729 38.1953 16.3729C38.4841 16.3729 38.6862 16.4884 38.8017 16.7194C39.1482 17.5857 39.4081 18.452 39.5814 19.3183C39.5814 19.376 39.5814 19.4338 39.5814 19.4915C39.5814 19.7803 39.437 19.9824 39.1482 20.0979C39.0905 20.0979 39.0327 20.0979 38.975 20.0979C38.6284 20.0979 38.4263 19.9247 38.3686 19.5781C38.1953 18.7696 37.9643 17.9611 37.6755 17.1525ZM43.4797 21.3107C43.8839 21.3107 44.0861 21.5129 44.0861 21.9171V25.0358C44.0861 25.44 43.8839 25.6422 43.4797 25.6422H42.007V27.2015C42.007 29.8004 41.3573 32.2837 40.0578 34.6516C38.7584 37.0195 37.0114 38.983 34.8168 40.5424C32.6222 42.1017 30.2254 43.0257 27.6266 43.3145C27.6266 43.7188 27.4244 43.9209 27.0202 43.9209H20.0898C19.6856 43.9209 19.4834 43.7188 19.4834 43.3145C15.5563 42.8525 12.1777 41.0477 9.34784 37.9002C6.51796 34.7527 5.10302 31.1864 5.10302 27.2015V25.6422H3.63033C3.22606 25.6422 3.02393 25.44 3.02393 25.0358V21.9171C3.02393 21.5129 3.22606 21.3107 3.63033 21.3107H5.18965C5.36291 18.9429 6.08482 16.6039 7.35538 14.2938C8.62593 11.9837 10.2863 9.99121 12.3365 8.31638C14.3868 6.64155 16.5669 5.4865 18.877 4.85122C19.0503 4.33144 19.3824 3.86942 19.8733 3.46515C20.3642 3.06089 20.8984 2.85875 21.4759 2.85875H25.6341C26.2116 2.85875 26.7458 3.06089 27.2367 3.46515C27.7276 3.86942 28.0597 4.33144 28.233 4.85122C31.7559 5.77526 34.8601 7.83992 37.5456 11.0452C40.2311 14.2505 41.6893 17.6723 41.9203 21.3107H43.4797ZM40.7075 21.3107C40.6498 20.5599 40.491 19.7081 40.2311 18.7552C39.9712 17.8023 39.6536 16.8782 39.2782 15.983C38.9028 15.0879 38.4552 14.2216 37.9354 13.3842C37.4156 12.5468 36.8959 11.8104 36.3761 11.1751V14.7269C36.3761 15.3045 36.174 15.8098 35.7697 16.2429C35.3654 16.6761 34.8601 16.8926 34.2537 16.8926C33.6473 16.8926 33.1275 16.6761 32.6944 16.2429C32.2612 15.8098 32.0446 15.3045 32.0446 14.7269V7.70998C30.8896 7.01694 29.6479 6.49717 28.3196 6.15065V21.3107H40.7075ZM33.2574 8.48964V14.7269C33.2574 15.0157 33.3585 15.2467 33.5606 15.42C33.7628 15.5932 33.9794 15.6798 34.2104 15.6798C34.3259 15.6798 34.4558 15.651 34.6002 15.5932C34.7446 15.5355 34.8456 15.4633 34.9034 15.3766C34.9612 15.29 35.0189 15.1889 35.0767 15.0734C35.1344 14.9579 35.1633 14.8424 35.1633 14.7269V9.96233C34.5858 9.44255 33.9505 8.95166 33.2574 8.48964ZM21.4759 4.07156C21.0716 4.07156 20.7251 4.21594 20.4364 4.5047C20.1476 4.79346 20.0032 5.13998 20.0032 5.54425V21.3107H27.1068V5.54425C27.1068 5.13998 26.9624 4.79346 26.6736 4.5047C26.3849 4.21594 26.0384 4.07156 25.6341 4.07156H24.1614V14.5537C24.1614 14.9579 23.9593 15.1601 23.555 15.1601C23.1507 15.1601 22.9486 14.9579 22.9486 14.5537V4.07156H21.4759ZM11.9467 9.96233V14.7269C11.9467 15.0157 12.0333 15.2467 12.2066 15.42C12.3799 15.5932 12.5964 15.6798 12.8563 15.6798C13.1162 15.6798 13.3472 15.5932 13.5493 15.42C13.7515 15.2467 13.8526 15.0157 13.8526 14.7269V8.48964C13.1595 8.95166 12.5242 9.44255 11.9467 9.96233ZM10.7339 11.2618C9.63661 12.4168 8.66925 13.9906 7.83184 15.983C6.99442 17.9755 6.51796 19.7514 6.40246 21.3107H18.7904V6.15065C17.4621 6.49717 16.2204 7.01694 15.0654 7.70998V14.7269C15.0654 15.3045 14.8488 15.8098 14.4156 16.2429C13.9825 16.6761 13.4627 16.8926 12.8563 16.8926C12.2499 16.8926 11.7446 16.6761 11.3403 16.2429C10.936 15.8098 10.7339 15.3045 10.7339 14.7269V11.2618ZM6.31583 27.2015C6.31583 30.8399 7.60082 34.1174 10.1708 37.0339C12.7408 39.9504 15.845 41.6397 19.4834 42.1017V41.2354C16.1338 40.7734 13.2461 39.1707 10.8205 36.4275C8.39492 33.6842 7.18212 30.6089 7.18212 27.2015V25.6422H6.31583V27.2015ZM38.7151 25.6422H8.39492V27.2015C8.39492 30.2624 9.49222 33.049 11.6868 35.5612C13.8814 38.0734 16.4803 39.5606 19.4834 40.0226L19.5701 39.936C19.5701 39.936 19.5701 39.9071 19.5701 39.8493H19.6567C19.6567 39.7916 19.6856 39.7338 19.7433 39.6761C19.8011 39.6761 19.8588 39.6472 19.9166 39.5894C19.9743 39.5894 20.0321 39.5894 20.0898 39.5894H27.0202C27.0779 39.5894 27.1357 39.5894 27.1934 39.5894C27.2512 39.6472 27.3089 39.6905 27.3667 39.7194C27.4244 39.7483 27.4533 39.7916 27.4533 39.8493H27.5399C27.5399 39.9071 27.5688 39.936 27.6266 39.936V40.0226C30.6297 39.5606 33.2286 38.0734 35.4232 35.5612C37.6178 33.049 38.7151 30.2624 38.7151 27.2015V25.6422ZM26.4138 42.7081V40.8023H20.6962V42.7081H26.4138ZM40.7942 27.2015V25.6422H39.9279V27.2015C39.9279 30.6089 38.7151 33.6842 36.2895 36.4275C33.8639 39.1707 30.9762 40.7734 27.6266 41.2354V42.1017C29.9944 41.8129 32.189 40.9466 34.2104 39.5028C36.2317 38.059 37.8343 36.2398 39.0183 34.0452C40.2022 31.8506 40.7942 29.5694 40.7942 27.2015ZM42.8733 24.4294V22.5235H4.23673V24.4294H42.8733Z" fill="#007F01"/>
</svg>
