<svg width="65" height="66" viewBox="0 0 65 66" fill="none" xmlns="http://www.w3.org/2000/svg">
<rect y="0.109863" width="65" height="65" rx="5" fill="#F8D100"/>
<path d="M37.832 36.3012L35.2344 39.5824C31.1328 37.2126 27.8971 33.9769 25.5273 29.8754L28.8086 27.2777C29.1732 27.0043 29.4238 26.6169 29.5605 26.1156C29.6973 25.6143 29.6289 25.1358 29.3555 24.6801L26.4844 18.1176C26.2109 17.5707 25.8463 17.1833 25.3906 16.9555C24.9349 16.7276 24.4336 16.7048 23.8867 16.8871L18.2812 18.2543C17.7344 18.4366 17.3014 18.7556 16.9824 19.2113C16.6634 19.667 16.5495 20.1683 16.6406 20.7152C17.2786 25.4548 18.8965 29.807 21.4941 33.7719C24.0918 37.7367 27.373 41.018 31.3379 43.6156C35.3027 46.2133 39.6549 47.8311 44.3945 48.4691C44.9414 48.5603 45.4427 48.4463 45.8984 48.1273C46.3542 47.8083 46.6732 47.3754 46.8555 46.8285L48.2226 41.223C48.4049 40.6762 48.3821 40.1749 48.1543 39.7191C47.9264 39.2634 47.539 38.8988 46.9922 38.6254L40.4297 35.7543C39.9739 35.4808 39.4954 35.4125 38.9941 35.5492C38.4928 35.6859 38.1055 35.9366 37.832 36.3012Z" fill="white"/>
</svg>
